<?xml version="1.0" standalone="no"?>
<!DOCTYPE svg PUBLIC "-//W3C//DTD SVG 1.1//EN" "http://www.w3.org/Graphics/SVG/1.1/DTD/svg11.dtd" >
<svg xmlns="http://www.w3.org/2000/svg" xmlns:xlink="http://www.w3.org/1999/xlink" version="1.1">
<metadata>
Created by FontForge 20170910 at Wed Aug  7 16:23:06 2013
 By Jimmy Wärting
Copyright (c) 2013, Natanael Gama (www.ndiscovered.com . info(at)ndiscovered.com), with Reserved Font Name Exo. This Font Software is licensed under the SIL Open Font License, Version 1.1.
</metadata>
<defs>
<font id="Exo2.0-Thin" horiz-adv-x="560" >
  <font-face 
    font-family="Exo 2.0 Thin"
    font-weight="250"
    font-stretch="normal"
    units-per-em="1000"
    panose-1="0 0 3 0 0 0 0 0 0 0"
    ascent="800"
    descent="-200"
    x-height="480"
    cap-height="690"
    bbox="-173 -259 1179 919"
    underline-thickness="50"
    underline-position="-100"
    stemh="24"
    stemv="22"
    unicode-range="U+0020-FB02"
  />
<missing-glyph horiz-adv-x="600" 
 />
    <glyph glyph-name="f_f" unicode="ff" horiz-adv-x="658" 
d="M669 692h-110c-80 0 -109 -29 -109 -111v-101h178v-22h-178v-458h-24v458h-280v-458h-24v458h-87v17l87 5v81c0 88 33 133 125 133c28 0 84 -1 118 -4v-18h-110c-80 0 -109 -29 -109 -111v-81h280v101c0 88 33 133 125 133c28 0 84 -1 118 -4v-18z" />
    <glyph glyph-name="f_f_i" unicode="ffi" horiz-adv-x="852" 
d="M754 480v-480h-24v457h-280v-457h-24v458h-280v-458h-24v458h-87v17l87 5v81c0 88 33 133 125 133c28 0 84 -1 118 -4v-18h-110c-80 0 -109 -29 -109 -111v-81h280v101c0 88 33 133 125 133c28 0 84 -1 118 -4v-18h-110c-80 0 -109 -29 -109 -111v-101h304zM737 679h10
c8 0 12 -4 12 -12v-62c0 -8 -4 -12 -12 -12h-10c-8 0 -12 4 -12 12v62c0 8 4 12 12 12z" />
    <glyph glyph-name="f_f_l" unicode="ffl" horiz-adv-x="919" 
d="M906 16l3 -16c-13 -4 -46 -6 -64 -6c-61 0 -101 36 -101 101v597h-185c-80 1 -109 -29 -109 -111v-101h178v-22h-178v-458h-24v458h-280v-458h-24v458h-87v17l87 5v81c0 88 33 133 125 133c28 0 84 -1 118 -4v-18h-110c-80 0 -109 -29 -109 -111v-81h280v101
c0 88 33 133 125 133c28 0 183 -3 217 -6v-612c0 -52 29 -80 80 -80h58z" />
    <glyph glyph-name="fi" unicode="fi" horiz-adv-x="549" 
d="M450 480v-480h-24v457h-280v-457h-24v457h-87v18l87 5v101c0 88 33 133 125 133c24 0 70 -1 98 -4v-18h-90c-80 0 -109 -29 -109 -111v-101h304zM433 679h10c8 0 12 -4 12 -12v-62c0 -8 -4 -12 -12 -12h-10c-8 0 -12 4 -12 12v62c0 8 4 12 12 12z" />
    <glyph glyph-name="fl" unicode="fl" horiz-adv-x="616" 
d="M603 16l3 -16c-13 -4 -46 -6 -64 -6c-61 0 -101 36 -101 101v597h-185c-80 1 -109 -29 -109 -111v-101h169v-23h-169v-457h-24v457h-87v18l87 5v101c0 88 33 133 125 133c28 0 183 -3 217 -6v-612c0 -52 29 -80 80 -80h58z" />
    <glyph glyph-name=".notdef" horiz-adv-x="600" 
 />
    <glyph glyph-name="A" unicode="A" horiz-adv-x="603" 
d="M466 252h-329l-91 -252h-27l248 681c2 6 7 9 13 9h43c6 0 11 -3 13 -9l248 -681h-27zM458 274l-122 338l-20 56h-29l-20 -56l-122 -338h313z" />
    <glyph glyph-name="Aacute" unicode="&#xc1;" horiz-adv-x="603" 
d="M268 736l-14 13l149 145l18 -17zM466 252h-329l-91 -252h-27l248 681c2 6 7 9 13 9h43c6 0 11 -3 13 -9l248 -681h-27zM458 274l-122 338l-20 56h-29l-20 -56l-122 -338h313z" />
    <glyph glyph-name="Abreve" unicode="&#x102;" horiz-adv-x="603" 
d="M419 873l18 -4c0 -71 -52 -114 -135 -114c-84 0 -137 43 -137 114l18 4c0 -60 46 -94 119 -94c71 0 117 34 117 94zM466 252h-329l-91 -252h-27l248 681c2 6 7 9 13 9h43c6 0 11 -3 13 -9l248 -681h-27zM458 274l-122 338l-20 56h-29l-20 -56l-122 -338h313z" />
    <glyph glyph-name="Acircumflex" unicode="&#xc2;" horiz-adv-x="603" 
d="M168 751l-12 12l136 117h18l136 -117l-11 -12l-130 102h-8zM466 252h-329l-91 -252h-27l248 681c2 6 7 9 13 9h43c6 0 11 -3 13 -9l248 -681h-27zM458 274l-122 338l-20 56h-29l-20 -56l-122 -338h313z" />
    <glyph glyph-name="Adieresis" unicode="&#xc4;" horiz-adv-x="603" 
d="M218 778h-10c-7 0 -10 4 -10 11v56c0 7 3 11 10 11h10c7 0 10 -4 10 -11v-56c0 -7 -3 -11 -10 -11zM395 778h-10c-7 0 -10 4 -10 11v56c0 7 3 11 10 11h10c7 0 10 -4 10 -11v-56c0 -7 -3 -11 -10 -11zM466 252h-329l-91 -252h-27l248 681c2 6 7 9 13 9h43
c6 0 11 -3 13 -9l248 -681h-27zM458 274l-122 338l-20 56h-29l-20 -56l-122 -338h313z" />
    <glyph glyph-name="Agrave" unicode="&#xc0;" horiz-adv-x="603" 
d="M327 736l-153 141l18 17l149 -145zM466 252h-329l-91 -252h-27l248 681c2 6 7 9 13 9h43c6 0 11 -3 13 -9l248 -681h-27zM458 274l-122 338l-20 56h-29l-20 -56l-122 -338h313z" />
    <glyph glyph-name="Amacron" unicode="&#x100;" horiz-adv-x="603" 
d="M432 804h-260v23h260v-23zM466 252h-329l-91 -252h-27l248 681c2 6 7 9 13 9h43c6 0 11 -3 13 -9l248 -681h-27zM458 274l-122 338l-20 56h-29l-20 -56l-122 -338h313z" />
    <glyph glyph-name="Aogonek" unicode="&#x104;" horiz-adv-x="603" 
d="M590 -182l3 -12c-103 -48 -142 3 -118 70c12 35 36 76 89 124h-7l-91 252h-329l-91 -252h-27l248 681c2 6 7 9 13 9h43c6 0 11 -3 13 -9l248 -681c-36 -36 -69 -76 -87 -126c-22 -62 17 -83 93 -56zM458 274l-122 338l-20 56h-29l-20 -56l-122 -338h313z" />
    <glyph glyph-name="Aring" unicode="&#xc5;" horiz-adv-x="603" 
d="M302 719c-53 0 -96 42 -96 95c0 52 43 95 96 95s96 -43 96 -95c0 -53 -43 -95 -96 -95zM302 890c-43 0 -75 -33 -75 -76c0 -44 32 -76 75 -76c42 0 75 32 75 76c0 43 -33 76 -75 76zM466 252h-329l-91 -252h-27l248 681c2 6 7 9 13 9h43c6 0 11 -3 13 -9l248 -681h-27z
M458 274l-122 338l-20 56h-29l-20 -56l-122 -338h313z" />
    <glyph glyph-name="Atilde" unicode="&#xc3;" horiz-adv-x="603" 
d="M174 777h-17c-2 61 28 93 75 89c59 -5 81 -63 140 -68c41 -3 58 16 58 63h17c2 -58 -28 -89 -75 -85c-67 5 -90 63 -140 68c-41 4 -58 -18 -58 -67zM466 252h-329l-91 -252h-27l248 681c2 6 7 9 13 9h43c6 0 11 -3 13 -9l248 -681h-27zM458 274l-122 338l-20 56h-29
l-20 -56l-122 -338h313z" />
    <glyph glyph-name="AE" unicode="&#xc6;" horiz-adv-x="906" 
d="M847 668h-269c-50 0 -82 -32 -82 -82v-206h308v-21h-308v-255c0 -48 34 -82 82 -82h269v-18c-92 -4 -182 -4 -274 -4c-59 0 -102 43 -102 102v170h-251l-179 -272h-30l399 605c49 74 100 85 165 85c124 0 199 -1 272 -4v-18zM471 294v293c0 31 19 67 41 77h-6
c-22 -9 -50 -32 -76 -72l-196 -298h237z" />
    <glyph glyph-name="B" unicode="B" horiz-adv-x="612" 
d="M402 360v-4c103 -9 137 -74 137 -184c0 -142 -56 -180 -212 -180c-104 0 -153 1 -224 8v690c62 7 104 8 194 8c163 0 222 -38 222 -180c0 -99 -35 -150 -117 -158zM128 368h189c129 1 176 30 176 150c0 128 -52 157 -196 157c-77 0 -139 -1 -169 -2v-305zM128 347v-330
c35 -1 108 -2 199 -2c137 0 186 29 186 157c0 137 -52 173 -196 175h-189z" />
    <glyph glyph-name="C" unicode="C" horiz-adv-x="561" 
d="M513 24l6 -18c-53 -12 -104 -18 -188 -18c-189 0 -255 94 -255 357s66 357 255 357c79 0 122 -5 174 -17l-6 -18c-56 9 -93 12 -168 12c-170 0 -229 -86 -229 -334s59 -334 229 -334c80 0 130 4 182 13z" />
    <glyph glyph-name="Cacute" unicode="&#x106;" horiz-adv-x="561" 
d="M441 877l-153 -141l-14 13l149 145zM513 24l6 -18c-53 -12 -104 -18 -188 -18c-189 0 -255 94 -255 357s66 357 255 357c79 0 122 -5 174 -17l-6 -18c-56 9 -93 12 -168 12c-170 0 -229 -86 -229 -334s59 -334 229 -334c80 0 130 4 182 13z" />
    <glyph glyph-name="Ccaron" unicode="&#x10c;" horiz-adv-x="561" 
d="M469 868l-137 -117h-18l-137 117l13 12l129 -102h8l130 102zM513 24l6 -18c-53 -12 -104 -18 -188 -18c-189 0 -255 94 -255 357s66 357 255 357c79 0 122 -5 174 -17l-6 -18c-56 9 -93 12 -168 12c-170 0 -229 -86 -229 -334s59 -334 229 -334c80 0 130 4 182 13z" />
    <glyph glyph-name="Ccedilla" unicode="&#xc7;" horiz-adv-x="561" 
d="M513 24l6 -18c-53 -12 -104 -18 -188 -18c-189 0 -255 94 -255 357s66 357 255 357c79 0 122 -5 174 -17l-6 -18c-56 9 -93 12 -168 12c-170 0 -229 -86 -229 -334s59 -334 229 -334c80 0 130 4 182 13zM299 -75l3 14c51 3 79 -17 78 -65c-1 -67 -54 -116 -139 -105l4 15
c71 -3 113 40 113 90c0 37 -15 50 -59 51z" />
    <glyph glyph-name="Cdotaccent" unicode="&#x10a;" horiz-adv-x="561" 
d="M317 860h10c8 0 12 -4 12 -12v-62c0 -8 -4 -12 -12 -12h-10c-8 0 -12 4 -12 12v62c0 8 4 12 12 12zM513 24l6 -18c-53 -12 -104 -18 -188 -18c-189 0 -255 94 -255 357s66 357 255 357c79 0 122 -5 174 -17l-6 -18c-56 9 -93 12 -168 12c-170 0 -229 -86 -229 -334
s59 -334 229 -334c80 0 130 4 182 13z" />
    <glyph glyph-name="D" unicode="D" horiz-adv-x="659" 
d="M103 0v690c66 5 142 9 229 9c185 0 251 -94 251 -354s-66 -354 -251 -354c-88 0 -162 4 -229 9zM128 672v-655c60 -1 124 -3 204 -3c166 0 225 86 225 331s-59 331 -225 331c-79 0 -143 -2 -204 -4z" />
    <glyph glyph-name="Eth" unicode="&#xd0;" horiz-adv-x="662" 
d="M106 381v309c66 5 142 9 229 9c185 0 251 -94 251 -354s-66 -354 -251 -354c-88 0 -162 4 -229 9v361h-80v20h80zM131 361v-344c60 -1 124 -3 204 -3c166 0 225 86 225 331s-59 331 -225 331c-79 0 -143 -2 -204 -4v-291h183v-20h-183z" />
    <glyph glyph-name="Dcaron" unicode="&#x10e;" horiz-adv-x="659" 
d="M316 751l-137 117l13 12l129 -102h8l130 102l12 -12l-137 -117h-18zM103 0v690c66 5 142 9 229 9c185 0 251 -94 251 -354s-66 -354 -251 -354c-88 0 -162 4 -229 9zM128 672v-655c60 -1 124 -3 204 -3c166 0 225 86 225 331s-59 331 -225 331c-79 0 -143 -2 -204 -4z
" />
    <glyph glyph-name="Dcroat" unicode="&#x110;" horiz-adv-x="662" 
d="M106 381v309c66 5 142 9 229 9c185 0 251 -94 251 -354s-66 -354 -251 -354c-88 0 -162 4 -229 9v361h-80v20h80zM131 361v-344c60 -1 124 -3 204 -3c166 0 225 86 225 331s-59 331 -225 331c-79 0 -143 -2 -204 -4v-291h183v-20h-183z" />
    <glyph glyph-name="E" unicode="E" horiz-adv-x="551" 
d="M491 22l2 -18c-98 -4 -196 -4 -294 -4c-59 0 -102 43 -102 102v486c0 59 43 102 102 102c98 0 196 0 294 -4l-2 -18h-287c-48 0 -82 -34 -82 -82v-206h328v-21h-328v-255c0 -48 34 -82 82 -82h287z" />
    <glyph glyph-name="Eacute" unicode="&#xc9;" horiz-adv-x="551" 
d="M276 761l-14 13l149 145l18 -17zM491 22l2 -18c-98 -4 -196 -4 -294 -4c-59 0 -102 43 -102 102v486c0 59 43 102 102 102c98 0 196 0 294 -4l-2 -18h-287c-48 0 -82 -34 -82 -82v-206h328v-21h-328v-255c0 -48 34 -82 82 -82h287z" />
    <glyph glyph-name="Ecaron" unicode="&#x11a;" horiz-adv-x="551" 
d="M302 776l-137 117l13 12l129 -102h8l130 102l12 -12l-137 -117h-18zM491 22l2 -18c-98 -4 -196 -4 -294 -4c-59 0 -102 43 -102 102v486c0 59 43 102 102 102c98 0 196 0 294 -4l-2 -18h-287c-48 0 -82 -34 -82 -82v-206h328v-21h-328v-255c0 -48 34 -82 82 -82h287z" />
    <glyph glyph-name="Ecircumflex" unicode="&#xca;" horiz-adv-x="551" 
d="M176 776l-12 12l136 117h18l136 -117l-11 -12l-130 102h-8zM491 22l2 -18c-98 -4 -196 -4 -294 -4c-59 0 -102 43 -102 102v486c0 59 43 102 102 102c98 0 196 0 294 -4l-2 -18h-287c-48 0 -82 -34 -82 -82v-206h328v-21h-328v-255c0 -48 34 -82 82 -82h287z" />
    <glyph glyph-name="Edieresis" unicode="&#xcb;" horiz-adv-x="551" 
d="M226 803h-10c-7 0 -10 4 -10 11v56c0 7 3 11 10 11h10c7 0 10 -4 10 -11v-56c0 -7 -3 -11 -10 -11zM403 803h-10c-7 0 -10 4 -10 11v56c0 7 3 11 10 11h10c7 0 10 -4 10 -11v-56c0 -7 -3 -11 -10 -11zM491 22l2 -18c-98 -4 -196 -4 -294 -4c-59 0 -102 43 -102 102v486
c0 59 43 102 102 102c98 0 196 0 294 -4l-2 -18h-287c-48 0 -82 -34 -82 -82v-206h328v-21h-328v-255c0 -48 34 -82 82 -82h287z" />
    <glyph glyph-name="Edotaccent" unicode="&#x116;" horiz-adv-x="551" 
d="M315 799h-10c-8 0 -12 4 -12 12v62c0 8 4 12 12 12h10c8 0 12 -4 12 -12v-62c0 -8 -4 -12 -12 -12zM491 22l2 -18c-98 -4 -196 -4 -294 -4c-59 0 -102 43 -102 102v486c0 59 43 102 102 102c98 0 196 0 294 -4l-2 -18h-287c-48 0 -82 -34 -82 -82v-206h328v-21h-328v-255
c0 -48 34 -82 82 -82h287z" />
    <glyph glyph-name="Egrave" unicode="&#xc8;" horiz-adv-x="551" 
d="M335 761l-153 141l18 17l149 -145zM491 22l2 -18c-98 -4 -196 -4 -294 -4c-59 0 -102 43 -102 102v486c0 59 43 102 102 102c98 0 196 0 294 -4l-2 -18h-287c-48 0 -82 -34 -82 -82v-206h328v-21h-328v-255c0 -48 34 -82 82 -82h287z" />
    <glyph glyph-name="Emacron" unicode="&#x112;" horiz-adv-x="551" 
d="M440 829h-260v23h260v-23zM491 22l2 -18c-98 -4 -196 -4 -294 -4c-59 0 -102 43 -102 102v486c0 59 43 102 102 102c98 0 196 0 294 -4l-2 -18h-287c-48 0 -82 -34 -82 -82v-206h328v-21h-328v-255c0 -48 34 -82 82 -82h287z" />
    <glyph glyph-name="Eogonek" unicode="&#x118;" horiz-adv-x="551" 
d="M499 -178l3 -12c-103 -48 -142 3 -118 70c12 34 36 75 88 123c-91 -3 -182 -3 -273 -3c-59 0 -102 43 -102 102v486c0 59 43 102 102 102c98 0 196 0 294 -4l-2 -18h-287c-48 0 -82 -34 -82 -82v-206h328v-21h-328v-255c0 -48 34 -82 82 -82h287l2 -18
c-36 -36 -69 -76 -87 -126c-22 -62 17 -83 93 -56z" />
    <glyph glyph-name="F" unicode="F" horiz-adv-x="530" 
d="M487 668h-280c-48 0 -82 -34 -82 -82v-210h321v-21h-321v-355h-25v588c0 59 43 102 102 102c96 0 191 0 287 -4z" />
    <glyph glyph-name="G" unicode="G" horiz-adv-x="622" 
d="M541 400v-400h-17l-6 89c-54 -58 -126 -101 -214 -101c-164 0 -228 107 -228 357c0 263 67 357 258 357c90 0 137 -5 196 -17l-6 -18c-63 9 -106 12 -190 12c-173 0 -232 -86 -232 -334c0 -234 56 -334 204 -334c98 0 157 54 210 101v288h25z" />
    <glyph glyph-name="Gbreve" unicode="&#x11e;" horiz-adv-x="622" 
d="M441 873l18 -4c0 -71 -52 -114 -135 -114c-84 0 -137 43 -137 114l18 4c0 -60 46 -94 119 -94c71 0 117 34 117 94zM541 400v-400h-17l-6 89c-54 -58 -126 -101 -214 -101c-164 0 -228 107 -228 357c0 263 67 357 258 357c90 0 137 -5 196 -17l-6 -18
c-63 9 -106 12 -190 12c-173 0 -232 -86 -232 -334c0 -234 56 -334 204 -334c98 0 157 54 210 101v288h25z" />
    <glyph glyph-name="Gcommaaccent" unicode="&#x122;" horiz-adv-x="622" 
d="M541 400v-400h-17l-6 89c-54 -58 -126 -101 -214 -101c-164 0 -228 107 -228 357c0 263 67 357 258 357c90 0 137 -5 196 -17l-6 -18c-63 9 -106 12 -190 12c-173 0 -232 -86 -232 -334c0 -234 56 -334 204 -334c98 0 157 54 210 101v288h25zM318 -65h8c7 0 11 -3 11 -11
v-58c-1 -33 -6 -80 -16 -115l-11 4c2 37 3 56 3 102c-3 0 -7 4 -5 9v58c-1 8 3 11 10 11z" />
    <glyph glyph-name="Gdotaccent" unicode="&#x120;" horiz-adv-x="622" 
d="M329 774h-10c-8 0 -12 4 -12 12v62c0 8 4 12 12 12h10c8 0 12 -4 12 -12v-62c0 -8 -4 -12 -12 -12zM541 400v-400h-17l-6 89c-54 -58 -126 -101 -214 -101c-164 0 -228 107 -228 357c0 263 67 357 258 357c90 0 137 -5 196 -17l-6 -18c-63 9 -106 12 -190 12
c-173 0 -232 -86 -232 -334c0 -234 56 -334 204 -334c98 0 157 54 210 101v288h25z" />
    <glyph glyph-name="H" unicode="H" horiz-adv-x="657" 
d="M554 690v-690h-25v359h-401v-359h-25v690h25v-309h401v309h25z" />
    <glyph glyph-name="Hbar" unicode="&#x126;" horiz-adv-x="665" 
d="M638 525h-80v-525h-25v359h-401v-359h-25v525h-80v20h80v145h25v-145h401v145h25v-145h80v-20zM533 525h-401v-144h401v144z" />
    <glyph glyph-name="I" unicode="I" horiz-adv-x="231" 
d="M128 0h-25v690h25v-690z" />
    <glyph glyph-name="IJ" unicode="&#x132;" horiz-adv-x="555" 
d="M128 0h-25v690h25v-690zM455 690v-575c0 -80 -40 -122 -122 -121c-18 0 -46 3 -64 6l3 16h58c67 0 100 33 100 100v574h25z" />
    <glyph glyph-name="Iacute" unicode="&#xcd;" horiz-adv-x="231" 
d="M234 877l-153 -141l-14 13l149 145zM128 0h-25v690h25v-690z" />
    <glyph glyph-name="Icircumflex" unicode="&#xce;" horiz-adv-x="231" 
d="M259 763l-11 -12l-130 102h-8l-129 -102l-12 12l136 117h18zM128 0h-25v690h25v-690z" />
    <glyph glyph-name="Idieresis" unicode="&#xcf;" horiz-adv-x="231" 
d="M21 856h10c7 0 10 -4 10 -11v-56c0 -7 -3 -11 -10 -11h-10c-7 0 -10 4 -10 11v56c0 7 3 11 10 11zM198 856h10c7 0 10 -4 10 -11v-56c0 -7 -3 -11 -10 -11h-10c-7 0 -10 4 -10 11v56c0 7 3 11 10 11zM128 0h-25v690h25v-690z" />
    <glyph glyph-name="Idotaccent" unicode="&#x130;" horiz-adv-x="231" 
d="M110 860h10c8 0 12 -4 12 -12v-62c0 -8 -4 -12 -12 -12h-10c-8 0 -12 4 -12 12v62c0 8 4 12 12 12zM128 0h-25v690h25v-690z" />
    <glyph glyph-name="Igrave" unicode="&#xcc;" horiz-adv-x="231" 
d="M154 749l-14 -13l-153 141l18 17zM128 0h-25v690h25v-690z" />
    <glyph glyph-name="Imacron" unicode="&#x12a;" horiz-adv-x="231" 
d="M245 804h-260v23h260v-23zM128 0h-25v690h25v-690z" />
    <glyph glyph-name="Iogonek" unicode="&#x12e;" horiz-adv-x="231" 
d="M134 -182l3 -12c-103 -48 -142 3 -118 70c12 35 36 76 89 124h-5v690h25v-690c-36 -36 -69 -76 -87 -126c-22 -62 17 -83 93 -56z" />
    <glyph glyph-name="J" unicode="J" horiz-adv-x="324" 
d="M224 690v-575c0 -80 -40 -122 -122 -121c-18 0 -46 3 -64 6l3 16h58c67 0 100 33 100 100v574h25z" />
    <glyph glyph-name="K" unicode="K" horiz-adv-x="562" 
d="M239 349h-114c2 -31 2 -57 2 -86v-263h-24v690h24v-236c0 -32 -1 -53 -2 -83h114l243 319h30l-231 -305c-8 -11 -17 -20 -22 -24v-2c5 -5 14 -13 22 -23l248 -336h-30z" />
    <glyph glyph-name="Kcommaaccent" unicode="&#x136;" horiz-adv-x="562" 
d="M529 0h-30l-260 349h-114c2 -31 2 -57 2 -86v-263h-24v690h24v-236c0 -32 -1 -53 -2 -83h114l243 319h30l-231 -305c-8 -11 -17 -20 -22 -24v-2c5 -5 14 -13 22 -23zM301 -65h8c7 0 11 -3 11 -11v-58c-1 -33 -6 -80 -16 -115l-11 4c2 37 3 56 3 102c-3 0 -7 4 -5 9v58
c-1 8 3 11 10 11z" />
    <glyph glyph-name="L" unicode="L" horiz-adv-x="507" 
d="M125 690v-586c0 -48 34 -82 82 -82h272v-18c-92 -4 -185 -4 -277 -4c-59 0 -102 43 -102 102v588h25z" />
    <glyph glyph-name="Lacute" unicode="&#x139;" horiz-adv-x="507" 
d="M232 877l-153 -141l-14 13l149 145zM125 690v-586c0 -48 34 -82 82 -82h272v-18c-92 -4 -185 -4 -277 -4c-59 0 -102 43 -102 102v588h25z" />
    <glyph glyph-name="Lcaron" unicode="&#x13d;" horiz-adv-x="507" 
d="M285 690h8c7 0 11 -3 11 -11v-58c-1 -33 -6 -80 -16 -115l-11 4c2 37 3 56 3 102c-3 0 -7 4 -5 9v58c-1 8 3 11 10 11zM125 690v-586c0 -48 34 -82 82 -82h272v-18c-92 -4 -185 -4 -277 -4c-59 0 -102 43 -102 102v588h25z" />
    <glyph glyph-name="Lcommaaccent" unicode="&#x13b;" horiz-adv-x="507" 
d="M125 690v-586c0 -48 34 -82 82 -82h272v-18c-92 -4 -185 -4 -277 -4c-59 0 -102 43 -102 102v588h25zM297 -75h8c7 0 11 -3 11 -11v-58c-1 -33 -6 -80 -16 -115l-11 4c2 37 3 56 3 102c-3 0 -7 4 -5 9v58c-1 8 3 11 10 11z" />
    <glyph glyph-name="Ldot" unicode="&#x13f;" horiz-adv-x="507" 
d="M125 690v-586c0 -48 34 -82 82 -82h272v-18c-92 -4 -185 -4 -277 -4c-59 0 -102 43 -102 102v588h25zM373 331h-10c-8 0 -12 4 -12 12v62c0 8 4 12 12 12h10c8 0 12 -4 12 -12v-62c0 -8 -4 -12 -12 -12z" />
    <glyph glyph-name="Lslash" unicode="&#x141;" horiz-adv-x="511" 
d="M483 22v-18c-92 -4 -185 -4 -277 -4c-59 0 -102 43 -102 102v255l-77 -34v21l77 34v312h25v-301l129 57v-21l-129 -57v-264c0 -48 34 -82 82 -82h272z" />
    <glyph glyph-name="M" unicode="M" horiz-adv-x="854" 
d="M679 690h42c9 0 15 -6 15 -15l30 -675h-25l-30 668h-24l-226 -599c-2 -6 -7 -9 -13 -9h-42c-6 0 -11 3 -13 9l-226 599h-24l-30 -668h-25l30 675c0 9 6 15 15 15h42c6 0 11 -3 13 -9l191 -505c12 -31 23 -63 35 -94h26l36 96l190 503c2 6 7 9 13 9z" />
    <glyph glyph-name="N" unicode="N" horiz-adv-x="688" 
d="M585 690v-675c0 -10 -5 -15 -15 -15h-42c-8 0 -14 3 -18 11l-320 589c-12 23 -25 45 -37 68h-25v-69v-599h-25v675c0 10 5 15 15 15h39c8 0 14 -3 18 -11l313 -576l44 -81h28v90v578h25z" />
    <glyph glyph-name="Nacute" unicode="&#x143;" horiz-adv-x="688" 
d="M477 877l-153 -141l-14 13l149 145zM585 690v-675c0 -10 -5 -15 -15 -15h-42c-8 0 -14 3 -18 11l-320 589c-12 23 -25 45 -37 68h-25v-69v-599h-25v675c0 10 5 15 15 15h39c8 0 14 -3 18 -11l313 -576l44 -81h28v90v578h25z" />
    <glyph glyph-name="Ncaron" unicode="&#x147;" horiz-adv-x="688" 
d="M505 868l-137 -117h-18l-137 117l13 12l129 -102h8l130 102zM585 690v-675c0 -10 -5 -15 -15 -15h-42c-8 0 -14 3 -18 11l-320 589c-12 23 -25 45 -37 68h-25v-69v-599h-25v675c0 10 5 15 15 15h39c8 0 14 -3 18 -11l313 -576l44 -81h28v90v578h25z" />
    <glyph glyph-name="Ncommaaccent" unicode="&#x145;" horiz-adv-x="688" 
d="M585 690v-675c0 -10 -5 -15 -15 -15h-42c-8 0 -14 3 -18 11l-320 589c-12 23 -25 45 -37 68h-25v-69v-599h-25v675c0 10 5 15 15 15h39c8 0 14 -3 18 -11l313 -576l44 -81h28v90v578h25zM326 -65h8c7 0 11 -3 11 -11v-58c-1 -33 -6 -80 -16 -115l-11 4c2 37 3 56 3 102
c-3 0 -7 4 -5 9v58c-1 8 3 11 10 11z" />
    <glyph glyph-name="Eng" unicode="&#x14a;" horiz-adv-x="688" 
d="M585 690v-791c0 -80 -40 -122 -122 -121c-18 0 -46 3 -64 6l3 16h58c67 0 100 33 100 100v100h-32c-8 0 -14 3 -18 11l-320 589c-12 23 -25 45 -37 68h-25v-70v-598h-25v675c0 10 5 15 15 15h39c8 0 14 -3 18 -11l313 -576l44 -81h28v90v578h25z" />
    <glyph glyph-name="Ntilde" unicode="&#xd1;" horiz-adv-x="688" 
d="M230 777h-17c-2 61 28 93 75 89c59 -5 81 -63 140 -68c41 -3 58 16 58 63h17c2 -58 -28 -89 -75 -85c-67 5 -90 63 -140 68c-41 4 -58 -18 -58 -67zM585 690v-675c0 -10 -5 -15 -15 -15h-42c-8 0 -14 3 -18 11l-320 589c-12 23 -25 45 -37 68h-25v-69v-599h-25v675
c0 10 5 15 15 15h39c8 0 14 -3 18 -11l313 -576l44 -81h28v90v578h25z" />
    <glyph glyph-name="O" unicode="O" horiz-adv-x="662" 
d="M331 702c189 0 255 -94 255 -357s-66 -357 -255 -357s-255 94 -255 357s66 357 255 357zM331 679c-170 0 -229 -86 -229 -334s59 -334 229 -334s229 86 229 334s-59 334 -229 334z" />
    <glyph glyph-name="Oacute" unicode="&#xd3;" horiz-adv-x="662" 
d="M451 877l-153 -141l-14 13l149 145zM331 702c189 0 255 -94 255 -357s-66 -357 -255 -357s-255 94 -255 357s66 357 255 357zM331 679c-170 0 -229 -86 -229 -334s59 -334 229 -334s229 86 229 334s-59 334 -229 334z" />
    <glyph glyph-name="Ocircumflex" unicode="&#xd4;" horiz-adv-x="662" 
d="M476 763l-11 -12l-130 102h-8l-129 -102l-12 12l136 117h18zM331 702c189 0 255 -94 255 -357s-66 -357 -255 -357s-255 94 -255 357s66 357 255 357zM331 679c-170 0 -229 -86 -229 -334s59 -334 229 -334s229 86 229 334s-59 334 -229 334z" />
    <glyph glyph-name="Odieresis" unicode="&#xd6;" horiz-adv-x="662" 
d="M238 856h10c7 0 10 -4 10 -11v-56c0 -7 -3 -11 -10 -11h-10c-7 0 -10 4 -10 11v56c0 7 3 11 10 11zM415 856h10c7 0 10 -4 10 -11v-56c0 -7 -3 -11 -10 -11h-10c-7 0 -10 4 -10 11v56c0 7 3 11 10 11zM331 702c189 0 255 -94 255 -357s-66 -357 -255 -357
s-255 94 -255 357s66 357 255 357zM331 679c-170 0 -229 -86 -229 -334s59 -334 229 -334s229 86 229 334s-59 334 -229 334z" />
    <glyph glyph-name="Ograve" unicode="&#xd2;" horiz-adv-x="662" 
d="M371 749l-14 -13l-153 141l18 17zM331 702c189 0 255 -94 255 -357s-66 -357 -255 -357s-255 94 -255 357s66 357 255 357zM331 679c-170 0 -229 -86 -229 -334s59 -334 229 -334s229 86 229 334s-59 334 -229 334z" />
    <glyph glyph-name="Ohungarumlaut" unicode="&#x150;" horiz-adv-x="662" 
d="M368 886l-117 -152l-16 10l111 157zM508 886l-117 -152l-16 10l111 157zM331 702c189 0 255 -94 255 -357s-66 -357 -255 -357s-255 94 -255 357s66 357 255 357zM331 679c-170 0 -229 -86 -229 -334s59 -334 229 -334s229 86 229 334s-59 334 -229 334z" />
    <glyph glyph-name="Omacron" unicode="&#x14c;" horiz-adv-x="662" 
d="M462 804h-260v23h260v-23zM331 702c189 0 255 -94 255 -357s-66 -357 -255 -357s-255 94 -255 357s66 357 255 357zM331 679c-170 0 -229 -86 -229 -334s59 -334 229 -334s229 86 229 334s-59 334 -229 334z" />
    <glyph glyph-name="Oslash" unicode="&#xd8;" horiz-adv-x="662" 
d="M516 731l-31 -66c73 -48 101 -148 101 -320c0 -263 -66 -357 -255 -357c-62 0 -111 10 -148 33l-34 -72l-21 10l35 76c-62 51 -87 149 -87 310c0 263 66 357 255 357c54 0 99 -8 134 -25l30 64zM175 59l279 595c-32 17 -73 25 -123 25c-170 0 -229 -86 -229 -334
c0 -147 21 -237 73 -286zM474 642l-280 -598c34 -23 79 -33 137 -33c170 0 229 86 229 334c0 158 -24 251 -86 297z" />
    <glyph glyph-name="Otilde" unicode="&#xd5;" horiz-adv-x="662" 
d="M204 777h-17c-2 61 28 93 75 89c59 -5 81 -63 140 -68c41 -3 58 16 58 63h17c2 -58 -28 -89 -75 -85c-67 5 -90 63 -140 68c-41 4 -58 -18 -58 -67zM331 702c189 0 255 -94 255 -357s-66 -357 -255 -357s-255 94 -255 357s66 357 255 357zM331 679
c-170 0 -229 -86 -229 -334s59 -334 229 -334s229 86 229 334s-59 334 -229 334z" />
    <glyph glyph-name="OE" unicode="&#x152;" horiz-adv-x="889" 
d="M831 668h-269c-48 0 -82 -34 -82 -82v-206h308v-21h-308v-255c0 -48 34 -82 82 -82h269v-18c-92 -4 -182 -4 -274 -4c-25 0 -47 8 -65 21c-54 -24 -91 -33 -161 -33c-189 0 -255 94 -255 357s66 357 255 357c69 0 103 -8 161 -33c17 13 40 21 65 21c92 0 182 0 274 -4
v-18zM455 102v486c0 24 7 46 20 63c-48 20 -81 28 -144 28c-170 0 -229 -83 -229 -334c0 -248 59 -334 229 -334c64 0 96 8 144 28c-13 17 -20 38 -20 63z" />
    <glyph glyph-name="P" unicode="P" horiz-adv-x="581" 
d="M103 0v690c70 7 118 8 221 8c146 0 199 -45 199 -203c0 -160 -53 -203 -199 -203c-89 0 -162 2 -196 4v-296h-25zM128 315h196c127 2 173 37 173 180s-46 180 -173 180c-90 0 -162 -1 -196 -2v-358z" />
    <glyph glyph-name="Thorn" unicode="&#xde;" horiz-adv-x="583" 
d="M128 690v-141c58 5 106 6 196 6c146 0 199 -45 199 -203c0 -160 -53 -203 -199 -203c-89 0 -162 2 -196 4v-153h-25v690h25zM128 172h196c127 2 173 37 173 180s-46 180 -173 180c-90 0 -162 -1 -196 -2v-358z" />
    <glyph glyph-name="Q" unicode="Q" horiz-adv-x="662" 
d="M331 702c189 0 255 -94 255 -357s-66 -357 -255 -357s-255 94 -255 357s66 357 255 357zM331 679c-170 0 -229 -86 -229 -334s59 -334 229 -334s229 86 229 334s-59 334 -229 334zM286 -65l12 14c62 -44 131 -70 224 -85l-7 -25c-88 12 -170 47 -229 96z" />
    <glyph glyph-name="R" unicode="R" horiz-adv-x="607" 
d="M548 0h-28l-74 218c-23 67 -60 92 -113 92c-97 0 -171 2 -205 4v-314h-25v690c70 7 118 8 221 8c146 0 199 -41 199 -194c0 -125 -39 -171 -127 -184v-4c35 -11 60 -49 76 -95zM128 333h196c127 2 173 37 173 171c0 136 -46 171 -173 171c-90 0 -162 -1 -196 -2v-340z
" />
    <glyph glyph-name="Racute" unicode="&#x154;" horiz-adv-x="607" 
d="M269 736l-14 13l149 145l18 -17zM548 0h-28l-74 218c-23 67 -60 92 -113 92c-97 0 -171 2 -205 4v-314h-25v690c70 7 118 8 221 8c146 0 199 -41 199 -194c0 -125 -39 -171 -127 -184v-4c35 -11 60 -49 76 -95zM128 333h196c127 2 173 37 173 171c0 136 -46 171 -173 171
c-90 0 -162 -1 -196 -2v-340z" />
    <glyph glyph-name="Rcaron" unicode="&#x158;" horiz-adv-x="607" 
d="M295 751l-137 117l13 12l129 -102h8l130 102l12 -12l-137 -117h-18zM548 0h-28l-74 218c-23 67 -60 92 -113 92c-97 0 -171 2 -205 4v-314h-25v690c70 7 118 8 221 8c146 0 199 -41 199 -194c0 -125 -39 -171 -127 -184v-4c35 -11 60 -49 76 -95zM128 333h196
c127 2 173 37 173 171c0 136 -46 171 -173 171c-90 0 -162 -1 -196 -2v-340z" />
    <glyph glyph-name="Rcommaaccent" unicode="&#x156;" horiz-adv-x="607" 
d="M548 0h-28l-74 218c-23 67 -60 92 -113 92c-97 0 -171 2 -205 4v-314h-25v690c70 7 118 8 221 8c146 0 199 -41 199 -194c0 -125 -39 -171 -127 -184v-4c35 -11 60 -49 76 -95zM128 333h196c127 2 173 37 173 171c0 136 -46 171 -173 171c-90 0 -162 -1 -196 -2v-340z
M324 -65h8c7 0 11 -3 11 -11v-58c-1 -33 -6 -80 -16 -115l-11 4c2 37 3 56 3 102c-3 0 -7 4 -5 9v58c-1 8 3 11 10 11z" />
    <glyph glyph-name="S" unicode="S" horiz-adv-x="554" 
d="M353 326l-153 21c-97 11 -134 65 -134 177c0 166 68 179 208 177c63 -1 127 -5 187 -12l-3 -19c-60 4 -122 8 -184 8c-128 0 -183 -3 -183 -154c0 -101 30 -142 109 -153l153 -21c101 -12 139 -60 139 -181c0 -164 -75 -180 -210 -180c-55 0 -119 1 -204 11l3 19
c75 -6 126 -8 202 -7c133 2 184 20 184 157c0 109 -31 146 -114 157z" />
    <glyph glyph-name="Sacute" unicode="&#x15a;" horiz-adv-x="554" 
d="M399 877l-153 -141l-14 13l149 145zM353 326l-153 21c-97 11 -134 65 -134 177c0 166 68 179 208 177c63 -1 127 -5 187 -12l-3 -19c-60 4 -122 8 -184 8c-128 0 -183 -3 -183 -154c0 -101 30 -142 109 -153l153 -21c101 -12 139 -60 139 -181c0 -164 -75 -180 -210 -180
c-55 0 -119 1 -204 11l3 19c75 -6 126 -8 202 -7c133 2 184 20 184 157c0 109 -31 146 -114 157z" />
    <glyph glyph-name="Scaron" unicode="&#x160;" horiz-adv-x="554" 
d="M427 868l-137 -117h-18l-137 117l13 12l129 -102h8l130 102zM353 326l-153 21c-97 11 -134 65 -134 177c0 166 68 179 208 177c63 -1 127 -5 187 -12l-3 -19c-60 4 -122 8 -184 8c-128 0 -183 -3 -183 -154c0 -101 30 -142 109 -153l153 -21c101 -12 139 -60 139 -181
c0 -164 -75 -180 -210 -180c-55 0 -119 1 -204 11l3 19c75 -6 126 -8 202 -7c133 2 184 20 184 157c0 109 -31 146 -114 157z" />
    <glyph glyph-name="Scedilla" unicode="&#x15e;" horiz-adv-x="554" 
d="M353 326l-153 21c-97 11 -134 65 -134 177c0 166 68 179 208 177c63 -1 127 -5 187 -12l-3 -19c-60 4 -122 8 -184 8c-128 0 -183 -3 -183 -154c0 -101 30 -142 109 -153l153 -21c101 -12 139 -60 139 -181c0 -164 -75 -180 -210 -180c-55 0 -119 1 -204 11l3 19
c75 -6 126 -8 202 -7c133 2 184 20 184 157c0 109 -31 146 -114 157zM250 -74l3 14c51 3 79 -17 78 -65c-1 -67 -54 -116 -139 -105l4 15c71 -3 113 40 113 90c0 37 -15 50 -59 51z" />
    <glyph glyph-name="Scommaaccent" unicode="&#x218;" horiz-adv-x="554" 
d="M353 326l-153 21c-97 11 -134 65 -134 177c0 166 68 179 208 177c63 -1 127 -5 187 -12l-3 -19c-60 4 -122 8 -184 8c-128 0 -183 -3 -183 -154c0 -101 30 -142 109 -153l153 -21c101 -12 139 -60 139 -181c0 -164 -75 -180 -210 -180c-55 0 -119 1 -204 11l3 19
c75 -6 126 -8 202 -7c133 2 184 20 184 157c0 109 -31 146 -114 157zM288 -65h8c7 0 11 -3 11 -11v-58c-1 -33 -6 -80 -16 -115l-11 4c2 37 3 56 3 102c-3 0 -7 4 -5 9v58c-1 8 3 11 10 11z" />
    <glyph glyph-name="T" unicode="T" horiz-adv-x="564" 
d="M537 668h-243v-668h-25v668h-242v22h510v-22z" />
    <glyph glyph-name="Tbar" unicode="&#x166;" horiz-adv-x="564" 
d="M294 668v-243h149v-20h-149v-405h-25v405h-155v20h155v243h-242v22h510v-22h-243z" />
    <glyph glyph-name="Tcaron" unicode="&#x164;" horiz-adv-x="564" 
d="M275 751l-137 117l13 12l129 -102h8l130 102l12 -12l-137 -117h-18zM537 668h-243v-668h-25v668h-242v22h510v-22z" />
    <glyph glyph-name="Tcedilla" unicode="&#x162;" horiz-adv-x="564" 
d="M537 690v-22h-243v-668h-25v668h-242v22h510zM250 -63l3 14c51 3 79 -17 78 -65c-1 -67 -54 -116 -139 -105l4 15c71 -3 113 40 113 90c0 37 -15 50 -59 51z" />
    <glyph glyph-name="uni021A" unicode="&#x21a;" horiz-adv-x="564" 
d="M537 668h-243v-668h-25v668h-242v22h510v-22zM269 -65h8c7 0 11 -3 11 -11v-58c-1 -33 -6 -80 -16 -115l-11 4c2 37 3 56 3 102c-3 0 -7 4 -5 9v58c-1 8 3 11 10 11z" />
    <glyph glyph-name="U" unicode="U" horiz-adv-x="667" 
d="M569 690v-435c0 -192 -63 -267 -235 -267c-173 0 -236 75 -236 267v435h25v-435c0 -179 57 -244 211 -244c153 0 210 65 210 244v435h25z" />
    <glyph glyph-name="Uacute" unicode="&#xda;" horiz-adv-x="667" 
d="M454 877l-153 -141l-14 13l149 145zM569 690v-435c0 -192 -63 -267 -235 -267c-173 0 -236 75 -236 267v435h25v-435c0 -179 57 -244 211 -244c153 0 210 65 210 244v435h25z" />
    <glyph glyph-name="Ucircumflex" unicode="&#xdb;" horiz-adv-x="667" 
d="M479 763l-11 -12l-130 102h-8l-129 -102l-12 12l136 117h18zM569 690v-435c0 -192 -63 -267 -235 -267c-173 0 -236 75 -236 267v435h25v-435c0 -179 57 -244 211 -244c153 0 210 65 210 244v435h25z" />
    <glyph glyph-name="Udieresis" unicode="&#xdc;" horiz-adv-x="667" 
d="M241 856h10c7 0 10 -4 10 -11v-56c0 -7 -3 -11 -10 -11h-10c-7 0 -10 4 -10 11v56c0 7 3 11 10 11zM418 856h10c7 0 10 -4 10 -11v-56c0 -7 -3 -11 -10 -11h-10c-7 0 -10 4 -10 11v56c0 7 3 11 10 11zM569 690v-435c0 -192 -63 -267 -235 -267c-173 0 -236 75 -236 267
v435h25v-435c0 -179 57 -244 211 -244c153 0 210 65 210 244v435h25z" />
    <glyph glyph-name="Ugrave" unicode="&#xd9;" horiz-adv-x="667" 
d="M374 749l-14 -13l-153 141l18 17zM569 690v-435c0 -192 -63 -267 -235 -267c-173 0 -236 75 -236 267v435h25v-435c0 -179 57 -244 211 -244c153 0 210 65 210 244v435h25z" />
    <glyph glyph-name="Uhungarumlaut" unicode="&#x170;" horiz-adv-x="667" 
d="M371 886l-117 -152l-16 10l111 157zM511 886l-117 -152l-16 10l111 157zM569 690v-435c0 -192 -63 -267 -235 -267c-173 0 -236 75 -236 267v435h25v-435c0 -179 57 -244 211 -244c153 0 210 65 210 244v435h25z" />
    <glyph glyph-name="Umacron" unicode="&#x16a;" horiz-adv-x="667" 
d="M465 804h-260v23h260v-23zM569 690v-435c0 -192 -63 -267 -235 -267c-173 0 -236 75 -236 267v435h25v-435c0 -179 57 -244 211 -244c153 0 210 65 210 244v435h25z" />
    <glyph glyph-name="Uogonek" unicode="&#x172;" horiz-adv-x="667" 
d="M569 690v-435c0 -177 -54 -255 -197 -266c-35 -35 -67 -75 -85 -124c-22 -62 17 -83 93 -56l3 -12c-103 -48 -142 3 -118 70c12 34 35 74 86 121h-17c-173 0 -236 75 -236 267v435h25v-435c0 -179 57 -244 211 -244c153 0 210 65 210 244v435h25z" />
    <glyph glyph-name="Uring" unicode="&#x16e;" horiz-adv-x="667" 
d="M335 909c53 0 96 -43 96 -95c0 -53 -43 -95 -96 -95s-96 42 -96 95c0 52 43 95 96 95zM335 890c-43 0 -75 -33 -75 -76c0 -44 32 -76 75 -76c42 0 75 32 75 76c0 43 -33 76 -75 76zM569 690v-435c0 -192 -63 -267 -235 -267c-173 0 -236 75 -236 267v435h25v-435
c0 -179 57 -244 211 -244c153 0 210 65 210 244v435h25z" />
    <glyph glyph-name="V" unicode="V" horiz-adv-x="592" 
d="M566 690l-236 -681c-2 -5 -7 -9 -13 -9h-42c-6 0 -11 4 -13 9l-236 681h27l204 -594c9 -25 17 -49 25 -74h28c8 25 16 50 25 75l204 593h27z" />
    <glyph glyph-name="W" unicode="W" horiz-adv-x="930" 
d="M897 690l-183 -680c-2 -6 -7 -10 -14 -10h-42c-7 0 -12 4 -14 11l-147 580l-20 77h-24l-20 -77l-147 -580c-2 -7 -7 -11 -14 -11h-42c-7 0 -12 4 -14 10l-183 680h26l160 -599l18 -69h28l17 68l150 589c2 7 7 11 14 11h38c7 0 12 -4 14 -11l150 -588c6 -23 11 -46 17 -69
h28l18 68l160 600h26z" />
    <glyph glyph-name="Wacute" unicode="&#x1e82;" horiz-adv-x="930" 
d="M585 877l-153 -141l-14 13l149 145zM897 690l-183 -680c-2 -6 -7 -10 -14 -10h-42c-7 0 -12 4 -14 11l-147 580l-20 77h-24l-20 -77l-147 -580c-2 -7 -7 -11 -14 -11h-42c-7 0 -12 4 -14 10l-183 680h26l160 -599l18 -69h28l17 68l150 589c2 7 7 11 14 11h38
c7 0 12 -4 14 -11l150 -588c6 -23 11 -46 17 -69h28l18 68l160 600h26z" />
    <glyph glyph-name="Wcircumflex" unicode="&#x174;" horiz-adv-x="930" 
d="M610 763l-11 -12l-130 102h-8l-129 -102l-12 12l136 117h18zM897 690l-183 -680c-2 -6 -7 -10 -14 -10h-42c-7 0 -12 4 -14 11l-147 580l-20 77h-24l-20 -77l-147 -580c-2 -7 -7 -11 -14 -11h-42c-7 0 -12 4 -14 10l-183 680h26l160 -599l18 -69h28l17 68l150 589
c2 7 7 11 14 11h38c7 0 12 -4 14 -11l150 -588c6 -23 11 -46 17 -69h28l18 68l160 600h26z" />
    <glyph glyph-name="Wdieresis" unicode="&#x1e84;" horiz-adv-x="930" 
d="M372 856h10c7 0 10 -4 10 -11v-56c0 -7 -3 -11 -10 -11h-10c-7 0 -10 4 -10 11v56c0 7 3 11 10 11zM549 856h10c7 0 10 -4 10 -11v-56c0 -7 -3 -11 -10 -11h-10c-7 0 -10 4 -10 11v56c0 7 3 11 10 11zM897 690l-183 -680c-2 -6 -7 -10 -14 -10h-42c-7 0 -12 4 -14 11
l-147 580l-20 77h-24l-20 -77l-147 -580c-2 -7 -7 -11 -14 -11h-42c-7 0 -12 4 -14 10l-183 680h26l160 -599l18 -69h28l17 68l150 589c2 7 7 11 14 11h38c7 0 12 -4 14 -11l150 -588c6 -23 11 -46 17 -69h28l18 68l160 600h26z" />
    <glyph glyph-name="Wgrave" unicode="&#x1e80;" horiz-adv-x="930" 
d="M505 749l-14 -13l-153 141l18 17zM897 690l-183 -680c-2 -6 -7 -10 -14 -10h-42c-7 0 -12 4 -14 11l-147 580l-20 77h-24l-20 -77l-147 -580c-2 -7 -7 -11 -14 -11h-42c-7 0 -12 4 -14 10l-183 680h26l160 -599l18 -69h28l17 68l150 589c2 7 7 11 14 11h38
c7 0 12 -4 14 -11l150 -588c6 -23 11 -46 17 -69h28l18 68l160 600h26z" />
    <glyph glyph-name="X" unicode="X" horiz-adv-x="593" 
d="M312 350h-31l-213 -350h-30l219 360l-206 330h30l199 -318h33l199 318h30l-206 -330l219 -360h-30z" />
    <glyph glyph-name="Y" unicode="Y" horiz-adv-x="541" 
d="M283 257v-257h-25v257l-236 433h28l180 -333c12 -22 25 -46 38 -68h5c12 22 26 46 37 67l180 334h28z" />
    <glyph glyph-name="Yacute" unicode="&#xdd;" horiz-adv-x="541" 
d="M237 736l-14 13l149 145l18 -17zM283 257v-257h-25v257l-236 433h28l180 -333c12 -22 25 -46 38 -68h5c12 22 26 46 37 67l180 334h28z" />
    <glyph glyph-name="Ycircumflex" unicode="&#x176;" horiz-adv-x="541" 
d="M137 751l-12 12l136 117h18l136 -117l-11 -12l-130 102h-8zM283 257v-257h-25v257l-236 433h28l180 -333c12 -22 25 -46 38 -68h5c12 22 26 46 37 67l180 334h28z" />
    <glyph glyph-name="Ydieresis" unicode="&#x178;" horiz-adv-x="541" 
d="M187 778h-10c-7 0 -10 4 -10 11v56c0 7 3 11 10 11h10c7 0 10 -4 10 -11v-56c0 -7 -3 -11 -10 -11zM364 778h-10c-7 0 -10 4 -10 11v56c0 7 3 11 10 11h10c7 0 10 -4 10 -11v-56c0 -7 -3 -11 -10 -11zM283 257v-257h-25v257l-236 433h28l180 -333c12 -22 25 -46 38 -68h5
c12 22 26 46 37 67l180 334h28z" />
    <glyph glyph-name="Ygrave" unicode="&#x1ef2;" horiz-adv-x="541" 
d="M296 736l-153 141l18 17l149 -145zM283 257v-257h-25v257l-236 433h28l180 -333c12 -22 25 -46 38 -68h5c12 22 26 46 37 67l180 334h28z" />
    <glyph glyph-name="Z" unicode="Z" horiz-adv-x="558" 
d="M507 23v-23h-455v23l421 644h-418v23h447v-23l-421 -644h426z" />
    <glyph glyph-name="Zacute" unicode="&#x179;" horiz-adv-x="558" 
d="M245 736l-14 13l149 145l18 -17zM507 23v-23h-455v23l421 644h-418v23h447v-23l-421 -644h426z" />
    <glyph glyph-name="Zcaron" unicode="&#x17d;" horiz-adv-x="558" 
d="M271 751l-137 117l13 12l129 -102h8l130 102l12 -12l-137 -117h-18zM507 23v-23h-455v23l421 644h-418v23h447v-23l-421 -644h426z" />
    <glyph glyph-name="Zdotaccent" unicode="&#x17b;" horiz-adv-x="558" 
d="M284 774h-10c-8 0 -12 4 -12 12v62c0 8 4 12 12 12h10c8 0 12 -4 12 -12v-62c0 -8 -4 -12 -12 -12zM507 23v-23h-455v23l421 644h-418v23h447v-23l-421 -644h426z" />
    <glyph glyph-name="a" unicode="a" horiz-adv-x="538" 
d="M88 453l-3 18c64 9 129 21 229 21c82 0 133 -38 133 -134v-358h-18l-5 93c-41 -42 -141 -99 -233 -99c-79 0 -125 43 -125 121v62c0 72 42 113 115 113h242v68c0 61 -25 111 -110 111c-72 0 -154 -7 -225 -16zM91 177v-62c0 -63 34 -96 100 -97c76 -2 177 46 232 99v153
l-242 -4c-59 -1 -90 -32 -90 -89z" />
    <glyph glyph-name="aacute" unicode="&#xe1;" horiz-adv-x="538" 
d="M233 554l-14 13l149 145l18 -17zM88 453l-3 18c64 9 129 21 229 21c82 0 133 -38 133 -134v-358h-18l-5 93c-41 -42 -141 -99 -233 -99c-79 0 -125 43 -125 121v62c0 72 42 113 115 113h242v68c0 61 -25 111 -110 111c-72 0 -154 -7 -225 -16zM91 177v-62
c0 -63 34 -96 100 -97c76 -2 177 46 232 99v153l-242 -4c-59 -1 -90 -32 -90 -89z" />
    <glyph glyph-name="abreve" unicode="&#x103;" horiz-adv-x="538" 
d="M384 691l18 -4c0 -71 -52 -114 -135 -114c-84 0 -137 43 -137 114l18 4c0 -60 46 -94 119 -94c71 0 117 34 117 94zM88 453l-3 18c64 9 129 21 229 21c82 0 133 -38 133 -134v-358h-18l-5 93c-41 -42 -141 -99 -233 -99c-79 0 -125 43 -125 121v62c0 72 42 113 115 113
h242v68c0 61 -25 111 -110 111c-72 0 -154 -7 -225 -16zM91 177v-62c0 -63 34 -96 100 -97c76 -2 177 46 232 99v153l-242 -4c-59 -1 -90 -32 -90 -89z" />
    <glyph glyph-name="acircumflex" unicode="&#xe2;" horiz-adv-x="538" 
d="M133 569l-12 12l136 117h18l136 -117l-11 -12l-130 102h-8zM88 453l-3 18c64 9 129 21 229 21c82 0 133 -38 133 -134v-358h-18l-5 93c-41 -42 -141 -99 -233 -99c-79 0 -125 43 -125 121v62c0 72 42 113 115 113h242v68c0 61 -25 111 -110 111c-72 0 -154 -7 -225 -16z
M91 177v-62c0 -63 34 -96 100 -97c76 -2 177 46 232 99v153l-242 -4c-59 -1 -90 -32 -90 -89z" />
    <glyph glyph-name="adieresis" unicode="&#xe4;" horiz-adv-x="538" 
d="M183 596h-10c-7 0 -10 4 -10 11v56c0 7 3 11 10 11h10c7 0 10 -4 10 -11v-56c0 -7 -3 -11 -10 -11zM360 596h-10c-7 0 -10 4 -10 11v56c0 7 3 11 10 11h10c7 0 10 -4 10 -11v-56c0 -7 -3 -11 -10 -11zM88 453l-3 18c64 9 129 21 229 21c82 0 133 -38 133 -134v-358h-18
l-5 93c-41 -42 -141 -99 -233 -99c-79 0 -125 43 -125 121v62c0 72 42 113 115 113h242v68c0 61 -25 111 -110 111c-72 0 -154 -7 -225 -16zM91 177v-62c0 -63 34 -96 100 -97c76 -2 177 46 232 99v153l-242 -4c-59 -1 -90 -32 -90 -89z" />
    <glyph glyph-name="agrave" unicode="&#xe0;" horiz-adv-x="538" 
d="M292 554l-153 141l18 17l149 -145zM88 453l-3 18c64 9 129 21 229 21c82 0 133 -38 133 -134v-358h-18l-5 93c-41 -42 -141 -99 -233 -99c-79 0 -125 43 -125 121v62c0 72 42 113 115 113h242v68c0 61 -25 111 -110 111c-72 0 -154 -7 -225 -16zM91 177v-62
c0 -63 34 -96 100 -97c76 -2 177 46 232 99v153l-242 -4c-59 -1 -90 -32 -90 -89z" />
    <glyph glyph-name="amacron" unicode="&#x101;" horiz-adv-x="538" 
d="M397 622h-260v23h260v-23zM88 453l-3 18c64 9 129 21 229 21c82 0 133 -38 133 -134v-358h-18l-5 93c-41 -42 -141 -99 -233 -99c-79 0 -125 43 -125 121v62c0 72 42 113 115 113h242v68c0 61 -25 111 -110 111c-72 0 -154 -7 -225 -16zM91 177v-62c0 -63 34 -96 100 -97
c76 -2 177 46 232 99v153l-242 -4c-59 -1 -90 -32 -90 -89z" />
    <glyph glyph-name="aogonek" unicode="&#x105;" horiz-adv-x="538" 
d="M453 -182l3 -12c-103 -48 -142 3 -118 70c12 35 37 77 91 126l-5 91c-41 -42 -141 -99 -233 -99c-79 0 -125 43 -125 121v62c0 72 42 113 115 113h242v68c0 61 -25 111 -110 111c-72 0 -154 -7 -225 -16l-3 18c64 9 129 21 229 21c82 0 133 -38 133 -134v-358
c-36 -36 -69 -76 -87 -126c-22 -62 17 -83 93 -56zM91 177v-62c0 -63 34 -96 100 -97c76 -2 177 46 232 99v153l-242 -4c-59 -1 -90 -32 -90 -89z" />
    <glyph glyph-name="aring" unicode="&#xe5;" horiz-adv-x="538" 
d="M267 537c-53 0 -96 42 -96 95c0 52 43 95 96 95s96 -43 96 -95c0 -53 -43 -95 -96 -95zM267 708c-43 0 -75 -33 -75 -76c0 -44 32 -76 75 -76c42 0 75 32 75 76c0 43 -33 76 -75 76zM88 453l-3 18c64 9 129 21 229 21c82 0 133 -38 133 -134v-358h-18l-5 93
c-41 -42 -141 -99 -233 -99c-79 0 -125 43 -125 121v62c0 72 42 113 115 113h242v68c0 61 -25 111 -110 111c-72 0 -154 -7 -225 -16zM91 177v-62c0 -63 34 -96 100 -97c76 -2 177 46 232 99v153l-242 -4c-59 -1 -90 -32 -90 -89z" />
    <glyph glyph-name="atilde" unicode="&#xe3;" horiz-adv-x="538" 
d="M139 595h-17c-2 61 28 93 75 89c59 -5 81 -63 140 -68c41 -3 58 16 58 63h17c2 -58 -28 -89 -75 -85c-67 5 -90 63 -140 68c-41 4 -58 -18 -58 -67zM88 453l-3 18c64 9 129 21 229 21c82 0 133 -38 133 -134v-358h-18l-5 93c-41 -42 -141 -99 -233 -99
c-79 0 -125 43 -125 121v62c0 72 42 113 115 113h242v68c0 61 -25 111 -110 111c-72 0 -154 -7 -225 -16zM91 177v-62c0 -63 34 -96 100 -97c76 -2 177 46 232 99v153l-242 -4c-59 -1 -90 -32 -90 -89z" />
    <glyph glyph-name="ae" unicode="&#xe6;" horiz-adv-x="880" 
d="M675 227h-227c4 -161 62 -216 192 -216c65 0 126 7 163 13l4 -18c-32 -10 -118 -18 -170 -18c-104 0 -166 33 -195 113c-45 -46 -152 -107 -251 -107c-79 0 -125 43 -125 121v62c0 72 42 113 115 113h242v68c0 61 -25 111 -110 111c-72 0 -154 -7 -225 -16l-3 18
c64 9 129 21 229 21c72 0 120 -29 131 -101c28 72 87 101 184 101c125 0 187 -45 189 -136c2 -95 -38 -129 -143 -129zM448 249h227c88 0 120 28 118 105s-56 115 -163 115c-132 0 -181 -59 -182 -220zM91 177v-62c0 -63 34 -96 100 -97c79 -2 184 47 245 103
c-8 29 -12 63 -13 103v46l-242 -4c-59 -1 -90 -32 -90 -89z" />
    <glyph glyph-name="b" unicode="b" horiz-adv-x="558" 
d="M116 700v-217c0 -39 1 -62 -3 -93c71 63 135 102 201 102c126 0 174 -70 174 -252s-54 -252 -194 -252c-67 0 -131 12 -202 31v681h24zM116 369v-333c69 -19 121 -25 178 -25c121 0 169 61 169 229s-42 229 -149 229c-63 0 -118 -34 -198 -100z" />
    <glyph glyph-name="c" unicode="c" horiz-adv-x="478" 
d="M430 23l4 -18c-44 -10 -97 -17 -145 -17c-160 0 -220 67 -220 252s60 252 219 252c36 0 93 -4 135 -17l-6 -18c-35 9 -93 12 -125 12c-145 0 -198 -52 -198 -229s53 -229 198 -229c28 0 94 3 138 12z" />
    <glyph glyph-name="cacute" unicode="&#x107;" horiz-adv-x="478" 
d="M392 695l-153 -141l-14 13l149 145zM430 23l4 -18c-44 -10 -97 -17 -145 -17c-160 0 -220 67 -220 252s60 252 219 252c36 0 93 -4 135 -17l-6 -18c-35 9 -93 12 -125 12c-145 0 -198 -52 -198 -229s53 -229 198 -229c28 0 94 3 138 12z" />
    <glyph glyph-name="ccaron" unicode="&#x10d;" horiz-adv-x="478" 
d="M420 686l-137 -117h-18l-137 117l13 12l129 -102h8l130 102zM430 23l4 -18c-44 -10 -97 -17 -145 -17c-160 0 -220 67 -220 252s60 252 219 252c36 0 93 -4 135 -17l-6 -18c-35 9 -93 12 -125 12c-145 0 -198 -52 -198 -229s53 -229 198 -229c28 0 94 3 138 12z" />
    <glyph glyph-name="ccedilla" unicode="&#xe7;" horiz-adv-x="478" 
d="M430 23l4 -18c-44 -10 -97 -17 -145 -17c-160 0 -220 67 -220 252s60 252 219 252c36 0 93 -4 135 -17l-6 -18c-35 9 -93 12 -125 12c-145 0 -198 -52 -198 -229s53 -229 198 -229c28 0 94 3 138 12zM254 -75l3 14c51 3 79 -17 78 -65c-1 -67 -54 -116 -139 -105l4 15
c71 -3 113 40 113 90c0 37 -15 50 -59 51z" />
    <glyph glyph-name="cdotaccent" unicode="&#x10b;" horiz-adv-x="478" 
d="M268 678h10c8 0 12 -4 12 -12v-62c0 -8 -4 -12 -12 -12h-10c-8 0 -12 4 -12 12v62c0 8 4 12 12 12zM430 23l4 -18c-44 -10 -97 -17 -145 -17c-160 0 -220 67 -220 252s60 252 219 252c36 0 93 -4 135 -17l-6 -18c-35 9 -93 12 -125 12c-145 0 -198 -52 -198 -229
s53 -229 198 -229c28 0 94 3 138 12z" />
    <glyph glyph-name="d" unicode="d" horiz-adv-x="561" 
d="M466 700v-700h-18l-4 84c-71 -63 -133 -96 -199 -96c-126 0 -174 70 -174 252s48 252 174 252c66 0 129 -19 200 -50c-4 35 -3 58 -3 93v165h24zM442 107v314c-80 32 -134 48 -197 48c-107 0 -149 -61 -149 -229s42 -229 149 -229c63 0 117 29 197 96z" />
    <glyph glyph-name="eth" unicode="&#xf0;" horiz-adv-x="548" 
d="M425 681l-79 -55c68 -58 121 -163 121 -347c0 -149 -15 -291 -197 -291c-136 0 -200 69 -200 233c0 137 52 225 199 225c51 0 103 -13 167 -54c-17 111 -59 179 -109 221l-93 -64l-11 17l87 60c-67 48 -145 54 -194 54l6 18c59 1 139 -9 207 -58l85 58zM270 10
c152 0 173 112 173 276c0 30 -2 59 -4 84c-67 42 -115 54 -175 54c-131 0 -169 -87 -169 -204c0 -153 58 -210 175 -210z" />
    <glyph glyph-name="dcaron" unicode="&#x10f;" horiz-adv-x="561" 
d="M569 701h7c7 0 11 -3 11 -10v-59c-1 -32 -6 -80 -16 -115l-10 4c2 37 3 56 3 102c-3 0 -7 4 -5 9v59c-1 7 3 10 10 10zM442 700h24v-700h-18l-4 84c-71 -63 -133 -96 -199 -96c-126 0 -174 70 -174 252s48 252 174 252c66 0 129 -19 200 -50c-4 35 -3 58 -3 93v165z
M442 107v314c-80 32 -134 48 -197 48c-107 0 -149 -61 -149 -229s42 -229 149 -229c63 0 117 29 197 96z" />
    <glyph glyph-name="dcroat" unicode="&#x111;" horiz-adv-x="553" 
d="M540 590h-74v-590h-18l-4 84c-71 -63 -133 -96 -199 -96c-126 0 -174 70 -174 252s48 252 174 252c66 0 129 -19 200 -50c-4 35 -3 58 -3 93v55h-177v20h177v90h24v-90h74v-20zM442 107v314c-80 32 -134 48 -197 48c-107 0 -149 -61 -149 -229s42 -229 149 -229
c63 0 117 29 197 96z" />
    <glyph glyph-name="e" unicode="e" horiz-adv-x="527" 
d="M361 227h-267c4 -161 62 -216 192 -216c65 0 126 7 163 13l4 -18c-32 -10 -118 -18 -170 -18c-152 0 -214 71 -214 254c0 184 58 250 206 250c125 0 187 -45 189 -136c2 -85 -25 -129 -103 -129zM94 249h267c59 0 80 37 78 105c-2 80 -56 115 -163 115
c-132 0 -181 -59 -182 -220z" />
    <glyph glyph-name="eacute" unicode="&#xe9;" horiz-adv-x="527" 
d="M243 554l-14 13l149 145l18 -17zM361 227h-267c4 -161 62 -216 192 -216c65 0 126 7 163 13l4 -18c-32 -10 -118 -18 -170 -18c-152 0 -214 71 -214 254c0 184 58 250 206 250c125 0 187 -45 189 -136c2 -85 -25 -129 -103 -129zM94 249h267c59 0 80 37 78 105
c-2 80 -56 115 -163 115c-132 0 -181 -59 -182 -220z" />
    <glyph glyph-name="ecaron" unicode="&#x11b;" horiz-adv-x="527" 
d="M269 569l-137 117l13 12l129 -102h8l130 102l12 -12l-137 -117h-18zM361 227h-267c4 -161 62 -216 192 -216c65 0 126 7 163 13l4 -18c-32 -10 -118 -18 -170 -18c-152 0 -214 71 -214 254c0 184 58 250 206 250c125 0 187 -45 189 -136c2 -85 -25 -129 -103 -129z
M94 249h267c59 0 80 37 78 105c-2 80 -56 115 -163 115c-132 0 -181 -59 -182 -220z" />
    <glyph glyph-name="ecircumflex" unicode="&#xea;" horiz-adv-x="527" 
d="M143 569l-12 12l136 117h18l136 -117l-11 -12l-130 102h-8zM361 227h-267c4 -161 62 -216 192 -216c65 0 126 7 163 13l4 -18c-32 -10 -118 -18 -170 -18c-152 0 -214 71 -214 254c0 184 58 250 206 250c125 0 187 -45 189 -136c2 -85 -25 -129 -103 -129zM94 249h267
c59 0 80 37 78 105c-2 80 -56 115 -163 115c-132 0 -181 -59 -182 -220z" />
    <glyph glyph-name="edieresis" unicode="&#xeb;" horiz-adv-x="527" 
d="M193 596h-10c-7 0 -10 4 -10 11v56c0 7 3 11 10 11h10c7 0 10 -4 10 -11v-56c0 -7 -3 -11 -10 -11zM370 596h-10c-7 0 -10 4 -10 11v56c0 7 3 11 10 11h10c7 0 10 -4 10 -11v-56c0 -7 -3 -11 -10 -11zM361 227h-267c4 -161 62 -216 192 -216c65 0 126 7 163 13l4 -18
c-32 -10 -118 -18 -170 -18c-152 0 -214 71 -214 254c0 184 58 250 206 250c125 0 187 -45 189 -136c2 -85 -25 -129 -103 -129zM94 249h267c59 0 80 37 78 105c-2 80 -56 115 -163 115c-132 0 -181 -59 -182 -220z" />
    <glyph glyph-name="edotaccent" unicode="&#x117;" horiz-adv-x="527" 
d="M282 592h-10c-8 0 -12 4 -12 12v62c0 8 4 12 12 12h10c8 0 12 -4 12 -12v-62c0 -8 -4 -12 -12 -12zM361 227h-267c4 -161 62 -216 192 -216c65 0 126 7 163 13l4 -18c-32 -10 -118 -18 -170 -18c-152 0 -214 71 -214 254c0 184 58 250 206 250c125 0 187 -45 189 -136
c2 -85 -25 -129 -103 -129zM94 249h267c59 0 80 37 78 105c-2 80 -56 115 -163 115c-132 0 -181 -59 -182 -220z" />
    <glyph glyph-name="egrave" unicode="&#xe8;" horiz-adv-x="527" 
d="M302 554l-153 141l18 17l149 -145zM361 227h-267c4 -161 62 -216 192 -216c65 0 126 7 163 13l4 -18c-32 -10 -118 -18 -170 -18c-152 0 -214 71 -214 254c0 184 58 250 206 250c125 0 187 -45 189 -136c2 -85 -25 -129 -103 -129zM94 249h267c59 0 80 37 78 105
c-2 80 -56 115 -163 115c-132 0 -181 -59 -182 -220z" />
    <glyph glyph-name="emacron" unicode="&#x113;" horiz-adv-x="527" 
d="M407 622h-260v23h260v-23zM361 227h-267c4 -161 62 -216 192 -216c65 0 126 7 163 13l4 -18c-32 -10 -118 -18 -170 -18c-152 0 -214 71 -214 254c0 184 58 250 206 250c125 0 187 -45 189 -136c2 -85 -25 -129 -103 -129zM94 249h267c59 0 80 37 78 105
c-2 80 -56 115 -163 115c-132 0 -181 -59 -182 -220z" />
    <glyph glyph-name="eogonek" unicode="&#x119;" horiz-adv-x="527" 
d="M449 24l4 -18c-36 -36 -69 -76 -87 -126c-22 -62 17 -83 93 -56l3 -12c-103 -48 -142 3 -118 70c11 33 34 72 82 118c-40 -7 -102 -12 -143 -12c-152 0 -214 71 -214 254c0 184 58 250 206 250c125 0 187 -45 189 -136c2 -85 -25 -129 -103 -129h-267
c4 -161 62 -216 192 -216c65 0 126 7 163 13zM94 249h267c59 0 80 37 78 105c-2 80 -56 115 -163 115c-132 0 -181 -59 -182 -220z" />
    <glyph glyph-name="f" unicode="f" horiz-adv-x="354" 
d="M365 692h-110c-80 0 -109 -29 -109 -111v-101h178v-22h-178v-458h-24v458h-87v17l87 5v101c0 88 33 133 125 133c28 0 84 -1 118 -4v-18z" />
    <glyph glyph-name="g" unicode="g" horiz-adv-x="545" 
d="M513 462l-103 -3c34 -25 49 -64 49 -116c0 -99 -53 -147 -190 -147c-52 0 -93 7 -123 21c-45 -49 -47 -114 42 -130l193 -34c84 -15 104 -51 104 -127c0 -102 -59 -138 -211 -138c-159 0 -217 36 -217 138c0 67 10 106 65 136l24 13c-72 29 -66 108 -15 151
c-38 24 -54 63 -54 117c0 98 54 149 192 149c39 0 71 -4 97 -12h150zM435 343c0 84 -43 127 -166 127s-168 -43 -168 -127c0 -85 46 -125 168 -125s166 40 166 125zM172 68l-34 -21c-48 -28 -57 -58 -57 -121c0 -85 52 -115 193 -115c135 0 187 30 187 115
c0 64 -15 93 -87 106l-199 35z" />
    <glyph glyph-name="gbreve" unicode="&#x11f;" horiz-adv-x="545" 
d="M387 691l18 -4c0 -71 -52 -114 -135 -114c-84 0 -137 43 -137 114l18 4c0 -60 46 -94 119 -94c71 0 117 34 117 94zM513 462l-103 -3c34 -25 49 -64 49 -116c0 -99 -53 -147 -190 -147c-52 0 -93 7 -123 21c-45 -49 -47 -114 42 -130l193 -34c84 -15 104 -51 104 -127
c0 -102 -59 -138 -211 -138c-159 0 -217 36 -217 138c0 67 10 106 65 136l24 13c-72 29 -66 108 -15 151c-38 24 -54 63 -54 117c0 98 54 149 192 149c39 0 71 -4 97 -12h150zM435 343c0 84 -43 127 -166 127s-168 -43 -168 -127c0 -85 46 -125 168 -125s166 40 166 125z
M172 68l-34 -21c-48 -28 -57 -58 -57 -121c0 -85 52 -115 193 -115c135 0 187 30 187 115c0 64 -15 93 -87 106l-199 35z" />
    <glyph glyph-name="gcommaaccent" unicode="&#x123;" horiz-adv-x="545" 
d="M278 566h-8c-7 0 -11 3 -11 11v58c1 33 6 80 16 115l11 -4c-2 -37 -3 -56 -3 -102c3 0 7 -4 5 -9v-58c1 -8 -3 -11 -10 -11zM513 462l-103 -3c34 -25 49 -64 49 -116c0 -99 -53 -147 -190 -147c-52 0 -93 7 -123 21c-45 -49 -47 -114 42 -130l193 -34
c84 -15 104 -51 104 -127c0 -102 -59 -138 -211 -138c-159 0 -217 36 -217 138c0 67 10 106 65 136l24 13c-72 29 -66 108 -15 151c-38 24 -54 63 -54 117c0 98 54 149 192 149c39 0 71 -4 97 -12h150zM435 343c0 84 -43 127 -166 127s-168 -43 -168 -127
c0 -85 46 -125 168 -125s166 40 166 125zM172 68l-34 -21c-48 -28 -57 -58 -57 -121c0 -85 52 -115 193 -115c135 0 187 30 187 115c0 64 -15 93 -87 106l-199 35z" />
    <glyph glyph-name="gdotaccent" unicode="&#x121;" horiz-adv-x="545" 
d="M275 592h-10c-8 0 -12 4 -12 12v62c0 8 4 12 12 12h10c8 0 12 -4 12 -12v-62c0 -8 -4 -12 -12 -12zM513 462l-103 -3c34 -25 49 -64 49 -116c0 -99 -53 -147 -190 -147c-52 0 -93 7 -123 21c-45 -49 -47 -114 42 -130l193 -34c84 -15 104 -51 104 -127
c0 -102 -59 -138 -211 -138c-159 0 -217 36 -217 138c0 67 10 106 65 136l24 13c-72 29 -66 108 -15 151c-38 24 -54 63 -54 117c0 98 54 149 192 149c39 0 71 -4 97 -12h150zM435 343c0 84 -43 127 -166 127s-168 -43 -168 -127c0 -85 46 -125 168 -125s166 40 166 125z
M172 68l-34 -21c-48 -28 -57 -58 -57 -121c0 -85 52 -115 193 -115c135 0 187 30 187 115c0 64 -15 93 -87 106l-199 35z" />
    <glyph glyph-name="h" unicode="h" horiz-adv-x="569" 
d="M120 700v-215c0 -35 -1 -66 -5 -93c83 62 159 100 234 100c85 0 129 -45 129 -131v-361h-24v358c0 76 -36 111 -110 111c-72 0 -134 -33 -226 -98v-371h-24v700h26z" />
    <glyph glyph-name="hbar" unicode="&#x127;" horiz-adv-x="573" 
d="M124 590v-105c0 -35 -1 -66 -5 -93c83 62 159 100 234 100c85 0 129 -45 129 -131v-361h-24v358c0 76 -36 111 -110 111c-72 0 -134 -33 -226 -98v-371h-24v590h-85v20h85v90h25v-90h165v-20h-164z" />
    <glyph glyph-name="i" unicode="i" horiz-adv-x="220" 
d="M105 679h10c8 0 12 -4 12 -12v-62c0 -8 -4 -12 -12 -12h-10c-8 0 -12 4 -12 12v62c0 8 4 12 12 12zM122 0h-24v480h24v-480z" />
    <glyph glyph-name="dotlessi" unicode="&#x131;" horiz-adv-x="220" 
d="M122 0h-24v480h24v-480z" />
    <glyph glyph-name="iacute" unicode="&#xed;" horiz-adv-x="220" 
d="M228 695l-153 -141l-14 13l149 145zM122 0h-24v480h24v-480z" />
    <glyph glyph-name="icircumflex" unicode="&#xee;" horiz-adv-x="220" 
d="M253 581l-11 -12l-130 102h-8l-129 -102l-12 12l136 117h18zM122 0h-24v480h24v-480z" />
    <glyph glyph-name="idieresis" unicode="&#xef;" horiz-adv-x="220" 
d="M15 674h10c7 0 10 -4 10 -11v-56c0 -7 -3 -11 -10 -11h-10c-7 0 -10 4 -10 11v56c0 7 3 11 10 11zM192 674h10c7 0 10 -4 10 -11v-56c0 -7 -3 -11 -10 -11h-10c-7 0 -10 4 -10 11v56c0 7 3 11 10 11zM122 0h-24v480h24v-480z" />
    <glyph glyph-name="igrave" unicode="&#xec;" horiz-adv-x="220" 
d="M148 567l-14 -13l-153 141l18 17zM122 0h-24v480h24v-480z" />
    <glyph glyph-name="ij" unicode="&#x133;" horiz-adv-x="440" 
d="M105 679h10c8 0 12 -4 12 -12v-62c0 -8 -4 -12 -12 -12h-10c-8 0 -12 4 -12 12v62c0 8 4 12 12 12zM325 679h10c8 0 12 -4 12 -12v-62c0 -8 -4 -12 -12 -12h-10c-8 0 -12 4 -12 12v62c0 8 4 12 12 12zM122 0h-24v480h24v-480zM342 480v-526c0 -65 -26 -119 -66 -164
l-13 10c34 45 55 89 55 154v526h24z" />
    <glyph glyph-name="imacron" unicode="&#x12b;" horiz-adv-x="220" 
d="M239 622h-260v23h260v-23zM122 0h-24v480h24v-480z" />
    <glyph glyph-name="iogonek" unicode="&#x12f;" horiz-adv-x="220" 
d="M114 592h-10c-8 0 -12 4 -12 12v62c0 8 4 12 12 12h10c8 0 12 -4 12 -12v-62c0 -8 -4 -12 -12 -12zM128 -182l3 -12c-103 -48 -142 3 -118 70c12 35 36 76 89 124h-4v480h24v-480c-36 -36 -69 -76 -87 -126c-22 -62 17 -83 93 -56z" />
    <glyph glyph-name="j" unicode="j" horiz-adv-x="220" 
d="M105 679h10c8 0 12 -4 12 -12v-62c0 -8 -4 -12 -12 -12h-10c-8 0 -12 4 -12 12v62c0 8 4 12 12 12zM122 480v-526c0 -65 -26 -119 -66 -164l-13 10c34 45 55 89 55 154v526h24z" />
    <glyph glyph-name="k" unicode="k" horiz-adv-x="473" 
d="M199 264h-83c2 -31 2 -57 2 -87v-177h-24v700h26v-332c0 -31 -1 -53 -4 -82h83l193 194h32l-181 -185c-6 -6 -17 -16 -23 -20v-2c6 -6 17 -17 23 -25l197 -248h-31z" />
    <glyph glyph-name="kcommaaccent" unicode="&#x137;" horiz-adv-x="473" 
d="M440 0h-31l-210 264h-83c2 -31 2 -57 2 -87v-177h-24v700h26v-332c0 -31 -1 -53 -4 -82h83l193 194h32l-181 -185c-6 -6 -17 -16 -23 -20v-2c6 -6 17 -17 23 -25zM256 -65h8c7 0 11 -3 11 -11v-58c-1 -33 -6 -80 -16 -115l-11 4c2 37 3 56 3 102c-3 0 -7 4 -5 9v58
c-1 8 3 11 10 11z" />
    <glyph glyph-name="l" unicode="l" horiz-adv-x="270" 
d="M119 700v-604c0 -52 29 -80 80 -80h58l3 -16c-13 -4 -46 -6 -64 -6c-61 0 -101 36 -101 101v605h24z" />
    <glyph glyph-name="lacute" unicode="&#x13a;" horiz-adv-x="270" 
d="M227 900l-153 -141l-14 13l149 145zM119 700v-604c0 -52 29 -80 80 -80h58l3 -16c-13 -4 -46 -6 -64 -6c-61 0 -101 36 -101 101v605h24z" />
    <glyph glyph-name="lcaron" unicode="&#x13e;" horiz-adv-x="270" 
d="M224 701h7c7 0 11 -3 11 -10v-59c-1 -32 -6 -80 -16 -115l-10 4c2 37 3 56 3 102c-3 0 -7 4 -5 9v59c-1 7 3 10 10 10zM119 700v-604c0 -52 29 -80 80 -80h58l3 -16c-13 -4 -46 -6 -64 -6c-61 0 -101 36 -101 101v605h24z" />
    <glyph glyph-name="lcommaaccent" unicode="&#x13c;" horiz-adv-x="270" 
d="M119 700v-604c0 -52 29 -80 80 -80h58l3 -16c-13 -4 -46 -6 -64 -6c-61 0 -101 36 -101 101v605h24zM162 -75h8c7 0 11 -3 11 -11v-58c-1 -33 -6 -80 -16 -115l-11 4c2 37 3 56 3 102c-3 0 -7 4 -5 9v58c-1 8 3 11 10 11z" />
    <glyph glyph-name="ldot" unicode="&#x140;" horiz-adv-x="299" 
d="M119 700v-604c0 -52 29 -80 80 -80h58l3 -16c-13 -4 -46 -6 -64 -6c-61 0 -101 36 -101 101v605h24zM252 347h-10c-8 0 -12 4 -12 12v62c0 8 4 12 12 12h10c8 0 12 -4 12 -12v-62c0 -8 -4 -12 -12 -12z" />
    <glyph glyph-name="lslash" unicode="&#x142;" horiz-adv-x="302" 
d="M281 16l3 -16c-13 -4 -46 -6 -64 -6c-61 0 -101 36 -101 101v268l-88 -39v21l88 39v316h24v-306l119 53v-21l-119 -53v-277c0 -52 29 -80 80 -80h58z" />
    <glyph glyph-name="m" unicode="m" horiz-adv-x="880" 
d="M113 480l3 -88c75 66 145 100 214 100c70 0 112 -34 122 -99c74 65 144 99 213 99c80 0 124 -45 124 -131v-361h-24v358c0 76 -36 111 -105 111c-66 0 -122 -33 -206 -98v-10v-361h-24v358c0 76 -36 111 -105 111c-66 0 -122 -33 -206 -98v-371h-24v480h18z" />
    <glyph glyph-name="n" unicode="n" horiz-adv-x="570" 
d="M113 480l3 -88c83 66 159 100 234 100c85 0 129 -45 129 -131v-361h-24v358c0 76 -36 111 -110 111c-72 0 -134 -33 -226 -98v-371h-24v480h18z" />
    <glyph glyph-name="nacute" unicode="&#x144;" horiz-adv-x="570" 
d="M259 554l-14 13l149 145l18 -17zM113 480l3 -88c83 66 159 100 234 100c85 0 129 -45 129 -131v-361h-24v358c0 76 -36 111 -110 111c-72 0 -134 -33 -226 -98v-371h-24v480h18z" />
    <glyph glyph-name="ncaron" unicode="&#x148;" horiz-adv-x="570" 
d="M285 569l-137 117l13 12l129 -102h8l130 102l12 -12l-137 -117h-18zM113 480l3 -88c83 66 159 100 234 100c85 0 129 -45 129 -131v-361h-24v358c0 76 -36 111 -110 111c-72 0 -134 -33 -226 -98v-371h-24v480h18z" />
    <glyph glyph-name="ncommaaccent" unicode="&#x146;" horiz-adv-x="570" 
d="M113 480l3 -88c83 66 159 100 234 100c85 0 129 -45 129 -131v-361h-24v358c0 76 -36 111 -110 111c-72 0 -134 -33 -226 -98v-371h-24v480h18zM286 -65h8c7 0 11 -3 11 -11v-58c-1 -33 -6 -80 -16 -115l-11 4c2 37 3 56 3 102c-3 0 -7 4 -5 9v58c-1 8 3 11 10 11z" />
    <glyph glyph-name="eng" unicode="&#x14b;" horiz-adv-x="570" 
d="M113 480l3 -88c83 66 159 100 234 100c85 0 129 -45 129 -131v-450c0 -80 -36 -122 -111 -121c-15 0 -29 3 -54 6l3 16h48c60 0 90 33 90 100v446c0 76 -36 111 -110 111c-72 0 -134 -33 -226 -98v-371h-24v480h18z" />
    <glyph glyph-name="ntilde" unicode="&#xf1;" horiz-adv-x="570" 
d="M165 595h-17c-2 61 28 93 75 89c59 -5 81 -63 140 -68c41 -3 58 16 58 63h17c2 -58 -28 -89 -75 -85c-67 5 -90 63 -140 68c-41 4 -58 -18 -58 -67zM113 480l3 -88c83 66 159 100 234 100c85 0 129 -45 129 -131v-361h-24v358c0 76 -36 111 -110 111
c-72 0 -134 -33 -226 -98v-371h-24v480h18z" />
    <glyph glyph-name="o" unicode="o" 
d="M280 492c155 0 210 -67 210 -252s-55 -252 -210 -252s-210 67 -210 252s55 252 210 252zM280 469c-136 0 -185 -56 -185 -229s49 -229 185 -229s185 56 185 229s-49 229 -185 229z" />
    <glyph glyph-name="oacute" unicode="&#xf3;" 
d="M398 695l-153 -141l-14 13l149 145zM280 492c155 0 210 -67 210 -252s-55 -252 -210 -252s-210 67 -210 252s55 252 210 252zM280 469c-136 0 -185 -56 -185 -229s49 -229 185 -229s185 56 185 229s-49 229 -185 229z" />
    <glyph glyph-name="ocircumflex" unicode="&#xf4;" 
d="M423 581l-11 -12l-130 102h-8l-129 -102l-12 12l136 117h18zM280 492c155 0 210 -67 210 -252s-55 -252 -210 -252s-210 67 -210 252s55 252 210 252zM280 469c-136 0 -185 -56 -185 -229s49 -229 185 -229s185 56 185 229s-49 229 -185 229z" />
    <glyph glyph-name="odieresis" unicode="&#xf6;" 
d="M185 674h10c7 0 10 -4 10 -11v-56c0 -7 -3 -11 -10 -11h-10c-7 0 -10 4 -10 11v56c0 7 3 11 10 11zM362 674h10c7 0 10 -4 10 -11v-56c0 -7 -3 -11 -10 -11h-10c-7 0 -10 4 -10 11v56c0 7 3 11 10 11zM280 492c155 0 210 -67 210 -252s-55 -252 -210 -252
s-210 67 -210 252s55 252 210 252zM280 469c-136 0 -185 -56 -185 -229s49 -229 185 -229s185 56 185 229s-49 229 -185 229z" />
    <glyph glyph-name="ograve" unicode="&#xf2;" 
d="M318 567l-14 -13l-153 141l18 17zM280 492c155 0 210 -67 210 -252s-55 -252 -210 -252s-210 67 -210 252s55 252 210 252zM280 469c-136 0 -185 -56 -185 -229s49 -229 185 -229s185 56 185 229s-49 229 -185 229z" />
    <glyph glyph-name="ohungarumlaut" unicode="&#x151;" 
d="M315 704l-117 -152l-16 10l111 157zM455 704l-117 -152l-16 10l111 157zM280 492c155 0 210 -67 210 -252s-55 -252 -210 -252s-210 67 -210 252s55 252 210 252zM280 469c-136 0 -185 -56 -185 -229s49 -229 185 -229s185 56 185 229s-49 229 -185 229z" />
    <glyph glyph-name="omacron" unicode="&#x14d;" 
d="M409 622h-260v23h260v-23zM280 492c155 0 210 -67 210 -252s-55 -252 -210 -252s-210 67 -210 252s55 252 210 252zM280 469c-136 0 -185 -56 -185 -229s49 -229 185 -229s185 56 185 229s-49 229 -185 229z" />
    <glyph glyph-name="oslash" unicode="&#xf8;" 
d="M423 530l-27 -58c68 -32 94 -104 94 -232c0 -185 -55 -252 -210 -252c-41 0 -75 5 -103 15l-30 -64l-19 9l30 64c-63 33 -88 104 -88 228c0 185 55 252 210 252c38 0 70 -4 96 -13l28 60zM168 34l198 424c-24 8 -52 11 -86 11c-136 0 -185 -56 -185 -229
c0 -113 21 -176 73 -206zM385 450l-198 -425c25 -10 56 -14 93 -14c136 0 185 56 185 229c0 117 -23 181 -80 210z" />
    <glyph glyph-name="otilde" unicode="&#xf5;" 
d="M151 595h-17c-2 61 28 93 75 89c59 -5 81 -63 140 -68c41 -3 58 16 58 63h17c2 -58 -28 -89 -75 -85c-67 5 -90 63 -140 68c-41 4 -58 -18 -58 -67zM280 492c155 0 210 -67 210 -252s-55 -252 -210 -252s-210 67 -210 252s55 252 210 252zM280 469
c-136 0 -185 -56 -185 -229s49 -229 185 -229s185 56 185 229s-49 229 -185 229z" />
    <glyph glyph-name="oe" unicode="&#x153;" horiz-adv-x="922" 
d="M717 227h-227c4 -161 62 -216 192 -216c65 0 126 7 163 13l4 -18c-32 -10 -118 -18 -170 -18c-112 0 -175 39 -201 132c-23 -95 -83 -132 -198 -132c-155 0 -210 67 -210 252s55 252 210 252c114 0 174 -36 198 -129c24 93 84 129 193 129c125 0 187 -45 189 -136
c2 -95 -38 -129 -143 -129zM280 11c136 0 185 56 185 229s-49 229 -185 229s-185 -56 -185 -229s49 -229 185 -229zM490 249h227c88 0 120 28 118 105s-56 115 -163 115c-132 0 -181 -59 -182 -220z" />
    <glyph glyph-name="p" unicode="p" horiz-adv-x="561" 
d="M113 480l4 -87c71 66 133 99 199 99c126 0 174 -70 174 -252s-48 -252 -174 -252c-66 0 -129 19 -200 53c4 -34 3 -57 3 -92v-159h-24v690h18zM119 372v-313c80 -32 134 -48 197 -48c107 0 149 61 149 229s-42 229 -149 229c-63 0 -117 -29 -197 -97z" />
    <glyph glyph-name="thorn" unicode="&#xfe;" horiz-adv-x="562" 
d="M116 403c71 59 134 89 200 89c126 0 174 -70 174 -252s-48 -252 -174 -252c-66 0 -129 19 -200 53c4 -34 3 -57 3 -92v-159h-24v910h24v-204c0 -35 1 -58 -3 -93zM119 382v-323c80 -32 134 -48 197 -48c107 0 149 61 149 229s-42 229 -149 229c-63 0 -117 -26 -197 -87z
" />
    <glyph glyph-name="q" unicode="q" horiz-adv-x="559" 
d="M442 -210v200c0 39 -1 62 3 93c-77 -61 -136 -95 -211 -95c-116 0 -164 78 -164 252c0 184 54 252 198 252c61 0 127 -12 198 -31v-671h-24zM442 104v340c-68 18 -126 25 -170 25c-129 0 -177 -56 -177 -230c0 -163 42 -228 143 -228c70 0 123 31 204 93z" />
    <glyph glyph-name="r" unicode="r" horiz-adv-x="383" 
d="M360 492l-5 -23h-17c-69 0 -130 -35 -219 -98v-371h-24v480h18l3 -88c80 63 153 100 225 100h19z" />
    <glyph glyph-name="racute" unicode="&#x155;" horiz-adv-x="383" 
d="M187 554l-14 13l149 145l18 -17zM360 492l-5 -23h-17c-69 0 -130 -35 -219 -98v-371h-24v480h18l3 -88c80 63 153 100 225 100h19z" />
    <glyph glyph-name="rcaron" unicode="&#x159;" horiz-adv-x="383" 
d="M213 569l-137 117l13 12l129 -102h8l130 102l12 -12l-137 -117h-18zM113 480l3 -88c80 63 153 100 225 100h19l-5 -23h-17c-69 0 -130 -35 -219 -98v-371h-24v480h18z" />
    <glyph glyph-name="rcommaaccent" unicode="&#x157;" horiz-adv-x="383" 
d="M360 492l-5 -23h-17c-69 0 -130 -35 -219 -98v-371h-24v480h18l3 -88c80 63 153 100 225 100h19zM97 -65h8c7 0 11 -3 11 -11v-58c-1 -33 -6 -80 -16 -115l-11 4c2 37 3 56 3 102c-3 0 -7 4 -5 9v58c-1 8 3 11 10 11z" />
    <glyph glyph-name="s" unicode="s" horiz-adv-x="499" 
d="M328 221l-162 20c-67 8 -104 41 -104 124c0 121 60 129 177 127c58 -1 127 -5 186 -12l-3 -18c-59 4 -124 7 -183 8c-107 2 -153 -1 -153 -105c0 -71 29 -95 80 -101l162 -20c70 -9 109 -46 109 -122c0 -122 -68 -133 -189 -133c-47 0 -101 1 -174 11l3 18
c63 -6 108 -8 172 -7c120 2 164 15 164 111c0 70 -37 93 -85 99z" />
    <glyph glyph-name="sacute" unicode="&#x15b;" horiz-adv-x="499" 
d="M372 695l-153 -141l-14 13l149 145zM328 221l-162 20c-67 8 -104 41 -104 124c0 121 60 129 177 127c58 -1 127 -5 186 -12l-3 -18c-59 4 -124 7 -183 8c-107 2 -153 -1 -153 -105c0 -71 29 -95 80 -101l162 -20c70 -9 109 -46 109 -122c0 -122 -68 -133 -189 -133
c-47 0 -101 1 -174 11l3 18c63 -6 108 -8 172 -7c120 2 164 15 164 111c0 70 -37 93 -85 99z" />
    <glyph glyph-name="scaron" unicode="&#x161;" horiz-adv-x="499" 
d="M400 686l-137 -117h-18l-137 117l13 12l129 -102h8l130 102zM328 221l-162 20c-67 8 -104 41 -104 124c0 121 60 129 177 127c58 -1 127 -5 186 -12l-3 -18c-59 4 -124 7 -183 8c-107 2 -153 -1 -153 -105c0 -71 29 -95 80 -101l162 -20c70 -9 109 -46 109 -122
c0 -122 -68 -133 -189 -133c-47 0 -101 1 -174 11l3 18c63 -6 108 -8 172 -7c120 2 164 15 164 111c0 70 -37 93 -85 99z" />
    <glyph glyph-name="scedilla" unicode="&#x15f;" horiz-adv-x="499" 
d="M328 221l-162 20c-67 8 -104 41 -104 124c0 121 60 129 177 127c58 -1 127 -5 186 -12l-3 -18c-59 4 -124 7 -183 8c-107 2 -153 -1 -153 -105c0 -71 29 -95 80 -101l162 -20c70 -9 109 -46 109 -122c0 -122 -68 -133 -189 -133c-47 0 -101 1 -174 11l3 18
c63 -6 108 -8 172 -7c120 2 164 15 164 111c0 70 -37 93 -85 99zM216 -74l3 14c51 3 79 -17 78 -65c-1 -67 -54 -116 -139 -105l4 15c71 -3 113 40 113 90c0 37 -15 50 -59 51z" />
    <glyph glyph-name="scommaaccent" unicode="&#x219;" horiz-adv-x="499" 
d="M328 221l-162 20c-67 8 -104 41 -104 124c0 121 60 129 177 127c58 -1 127 -5 186 -12l-3 -18c-59 4 -124 7 -183 8c-107 2 -153 -1 -153 -105c0 -71 29 -95 80 -101l162 -20c70 -9 109 -46 109 -122c0 -122 -68 -133 -189 -133c-47 0 -101 1 -174 11l3 18
c63 -6 108 -8 172 -7c120 2 164 15 164 111c0 70 -37 93 -85 99zM257 -65h8c7 0 11 -3 11 -11v-58c-1 -33 -6 -80 -16 -115l-11 4c2 37 3 56 3 102c-3 0 -7 4 -5 9v58c-1 8 3 11 10 11z" />
    <glyph glyph-name="germandbls" unicode="&#xdf;" horiz-adv-x="651" 
d="M370 284l133 -40c60 -18 97 -46 97 -122c0 -122 -66 -133 -159 -133c-44 0 -96 1 -165 11l2 18c59 -6 109 -8 163 -7c89 2 134 13 134 111c0 70 -34 87 -75 99l-132 40c-54 16 -88 41 -88 104c0 88 58 95 153 127c62 21 81 43 81 109c0 70 -71 89 -185 89
c-137 0 -182 -30 -182 -159v-531h-24v458h-87v17l87 5v51c0 169 89 181 206 181c128 0 207 -24 207 -111c0 -84 -32 -108 -102 -131c-88 -29 -130 -31 -130 -105c0 -51 27 -69 66 -81z" />
    <glyph glyph-name="t" unicode="t" horiz-adv-x="347" 
d="M145 458v-362c0 -53 29 -80 80 -80h88l3 -16c-27 -4 -68 -6 -85 -6c-74 0 -110 36 -110 101v363h-87v17l87 5v151h24v-151h178v-22h-178z" />
    <glyph glyph-name="tbar" unicode="&#x167;" horiz-adv-x="347" 
d="M145 458v-118h157v-20h-157v-224c0 -53 29 -80 80 -80h88l3 -16c-27 -4 -68 -6 -85 -6c-74 0 -110 36 -110 101v225h-74v20h74v118h-87v17l87 5v151h24v-151h178v-22h-178z" />
    <glyph glyph-name="tcaron" unicode="&#x165;" horiz-adv-x="347" 
d="M267 562l-11 4c2 37 3 56 3 102c-3 0 -7 4 -5 9v58c-1 8 3 11 10 11h8c7 0 11 -3 11 -11v-58c-1 -33 -6 -80 -16 -115zM145 458v-362c0 -53 29 -80 80 -80h88l3 -16c-27 -4 -68 -6 -85 -6c-74 0 -110 36 -110 101v363h-87v17l87 5v151h24v-151h178v-22h-178z" />
    <glyph glyph-name="tcedilla" unicode="&#x163;" horiz-adv-x="347" 
d="M145 458v-362c0 -53 29 -80 80 -80h88l3 -16c-27 -4 -68 -6 -85 -6c-74 0 -110 36 -110 101v363h-87v17l87 5v151h24v-151h178v-22h-178zM169 -69l3 14c51 3 79 -17 78 -65c-1 -67 -54 -116 -139 -105l4 15c71 -3 113 40 113 90c0 37 -15 50 -59 51z" />
    <glyph glyph-name="uni021B" unicode="&#x21b;" horiz-adv-x="347" 
d="M145 458v-362c0 -53 29 -80 80 -80h88l3 -16c-27 -4 -68 -6 -85 -6c-74 0 -110 36 -110 101v363h-87v17l87 5v151h24v-151h178v-22h-178zM226 -65h8c7 0 11 -3 11 -11v-58c-1 -33 -6 -80 -16 -115l-11 4c2 37 3 56 3 102c-3 0 -7 4 -5 9v58c-1 8 3 11 10 11z" />
    <glyph glyph-name="u" unicode="u" 
d="M465 480v-480h-18l-3 88c-79 -66 -152 -100 -224 -100c-85 0 -129 45 -129 131v361h24v-358c0 -76 36 -111 110 -111c69 0 128 33 216 98v371h24z" />
    <glyph glyph-name="uacute" unicode="&#xfa;" 
d="M246 554l-14 13l149 145l18 -17zM465 480v-480h-18l-3 88c-79 -66 -152 -100 -224 -100c-85 0 -129 45 -129 131v361h24v-358c0 -76 36 -111 110 -111c69 0 128 33 216 98v371h24z" />
    <glyph glyph-name="ucircumflex" unicode="&#xfb;" 
d="M146 569l-12 12l136 117h18l136 -117l-11 -12l-130 102h-8zM465 480v-480h-18l-3 88c-79 -66 -152 -100 -224 -100c-85 0 -129 45 -129 131v361h24v-358c0 -76 36 -111 110 -111c69 0 128 33 216 98v371h24z" />
    <glyph glyph-name="udieresis" unicode="&#xfc;" 
d="M196 596h-10c-7 0 -10 4 -10 11v56c0 7 3 11 10 11h10c7 0 10 -4 10 -11v-56c0 -7 -3 -11 -10 -11zM373 596h-10c-7 0 -10 4 -10 11v56c0 7 3 11 10 11h10c7 0 10 -4 10 -11v-56c0 -7 -3 -11 -10 -11zM465 480v-480h-18l-3 88c-79 -66 -152 -100 -224 -100
c-85 0 -129 45 -129 131v361h24v-358c0 -76 36 -111 110 -111c69 0 128 33 216 98v371h24z" />
    <glyph glyph-name="ugrave" unicode="&#xf9;" 
d="M305 554l-153 141l18 17l149 -145zM465 480v-480h-18l-3 88c-79 -66 -152 -100 -224 -100c-85 0 -129 45 -129 131v361h24v-358c0 -76 36 -111 110 -111c69 0 128 33 216 98v371h24z" />
    <glyph glyph-name="uhungarumlaut" unicode="&#x171;" 
d="M199 552l-16 10l111 157l22 -15zM339 552l-16 10l111 157l22 -15zM465 480v-480h-18l-3 88c-79 -66 -152 -100 -224 -100c-85 0 -129 45 -129 131v361h24v-358c0 -76 36 -111 110 -111c69 0 128 33 216 98v371h24z" />
    <glyph glyph-name="umacron" unicode="&#x16b;" 
d="M410 622h-260v23h260v-23zM465 480v-480h-18l-3 88c-79 -66 -152 -100 -224 -100c-85 0 -129 45 -129 131v361h24v-358c0 -76 36 -111 110 -111c69 0 128 33 216 98v371h24z" />
    <glyph glyph-name="uogonek" unicode="&#x173;" 
d="M471 -182l3 -12c-103 -48 -142 3 -118 70c12 35 37 77 91 126l-3 86c-79 -66 -152 -100 -224 -100c-85 0 -129 45 -129 131v361h24v-358c0 -76 36 -111 110 -111c69 0 128 33 216 98v371h24v-480c-36 -36 -69 -76 -87 -126c-22 -62 17 -83 93 -56z" />
    <glyph glyph-name="uring" unicode="&#x16f;" 
d="M280 537c-53 0 -96 42 -96 95c0 52 43 95 96 95s96 -43 96 -95c0 -53 -43 -95 -96 -95zM280 708c-43 0 -75 -33 -75 -76c0 -44 32 -76 75 -76c42 0 75 32 75 76c0 43 -33 76 -75 76zM465 480v-480h-18l-3 88c-79 -66 -152 -100 -224 -100c-85 0 -129 45 -129 131v361h24
v-358c0 -76 36 -111 110 -111c69 0 128 33 216 98v371h24z" />
    <glyph glyph-name="v" unicode="v" horiz-adv-x="507" 
d="M477 480l-197 -472c-3 -5 -7 -8 -13 -8h-27c-6 0 -10 3 -13 8l-197 472h26l153 -367c13 -30 25 -61 38 -91h13l39 92l152 366h26z" />
    <glyph glyph-name="w" unicode="w" horiz-adv-x="812" 
d="M778 480l-167 -471c-2 -6 -7 -9 -13 -9h-26c-6 0 -11 4 -13 9l-125 377c-8 24 -15 48 -23 72h-10l-24 -72l-124 -377c-2 -5 -7 -9 -13 -9h-26c-6 0 -11 3 -13 9l-167 471h26l138 -394c8 -21 14 -43 22 -64h14l21 65l126 384c2 5 7 9 13 9h24c6 0 11 -4 13 -9l126 -384
l21 -65h14c8 22 14 43 22 65l138 393h26z" />
    <glyph glyph-name="wacute" unicode="&#x1e83;" horiz-adv-x="812" 
d="M525 695l-153 -141l-14 13l149 145zM778 480l-167 -471c-2 -6 -7 -9 -13 -9h-26c-6 0 -11 4 -13 9l-125 377c-8 24 -15 48 -23 72h-10l-24 -72l-124 -377c-2 -5 -7 -9 -13 -9h-26c-6 0 -11 3 -13 9l-167 471h26l138 -394c8 -21 14 -43 22 -64h14l21 65l126 384
c2 5 7 9 13 9h24c6 0 11 -4 13 -9l126 -384l21 -65h14c8 22 14 43 22 65l138 393h26z" />
    <glyph glyph-name="wcircumflex" unicode="&#x175;" horiz-adv-x="812" 
d="M550 581l-11 -12l-130 102h-8l-129 -102l-12 12l136 117h18zM778 480l-167 -471c-2 -6 -7 -9 -13 -9h-26c-6 0 -11 4 -13 9l-125 377c-8 24 -15 48 -23 72h-10l-24 -72l-124 -377c-2 -5 -7 -9 -13 -9h-26c-6 0 -11 3 -13 9l-167 471h26l138 -394c8 -21 14 -43 22 -64h14
l21 65l126 384c2 5 7 9 13 9h24c6 0 11 -4 13 -9l126 -384l21 -65h14c8 22 14 43 22 65l138 393h26z" />
    <glyph glyph-name="wdieresis" unicode="&#x1e85;" horiz-adv-x="812" 
d="M312 674h10c7 0 10 -4 10 -11v-56c0 -7 -3 -11 -10 -11h-10c-7 0 -10 4 -10 11v56c0 7 3 11 10 11zM489 674h10c7 0 10 -4 10 -11v-56c0 -7 -3 -11 -10 -11h-10c-7 0 -10 4 -10 11v56c0 7 3 11 10 11zM778 480l-167 -471c-2 -6 -7 -9 -13 -9h-26c-6 0 -11 4 -13 9
l-125 377c-8 24 -15 48 -23 72h-10l-24 -72l-124 -377c-2 -5 -7 -9 -13 -9h-26c-6 0 -11 3 -13 9l-167 471h26l138 -394c8 -21 14 -43 22 -64h14l21 65l126 384c2 5 7 9 13 9h24c6 0 11 -4 13 -9l126 -384l21 -65h14c8 22 14 43 22 65l138 393h26z" />
    <glyph glyph-name="wgrave" unicode="&#x1e81;" horiz-adv-x="812" 
d="M445 567l-14 -13l-153 141l18 17zM778 480l-167 -471c-2 -6 -7 -9 -13 -9h-26c-6 0 -11 4 -13 9l-125 377c-8 24 -15 48 -23 72h-10l-24 -72l-124 -377c-2 -5 -7 -9 -13 -9h-26c-6 0 -11 3 -13 9l-167 471h26l138 -394c8 -21 14 -43 22 -64h14l21 65l126 384
c2 5 7 9 13 9h24c6 0 11 -4 13 -9l126 -384l21 -65h14c8 22 14 43 22 65l138 393h26z" />
    <glyph glyph-name="x" unicode="x" horiz-adv-x="505" 
d="M264 240h-23l-175 -240h-30l182 250l-169 230h30l160 -218h27l160 218h30l-169 -230l182 -250h-30z" />
    <glyph glyph-name="y" unicode="y" horiz-adv-x="506" 
d="M477 480l-221 -527c-34 -79 -69 -138 -155 -163l-6 14c80 31 113 88 140 158l15 38h-10c-6 0 -10 3 -13 8l-197 472h26l169 -406l22 -52h13l22 54l169 404h26z" />
    <glyph glyph-name="yacute" unicode="&#xfd;" horiz-adv-x="506" 
d="M222 554l-14 13l149 145l18 -17zM477 480l-221 -527c-34 -79 -69 -138 -155 -163l-6 14c80 31 113 88 140 158l15 38h-10c-6 0 -10 3 -13 8l-197 472h26l169 -406l22 -52h13l22 54l169 404h26z" />
    <glyph glyph-name="ycircumflex" unicode="&#x177;" horiz-adv-x="506" 
d="M122 569l-12 12l136 117h18l136 -117l-11 -12l-130 102h-8zM477 480l-221 -527c-34 -79 -69 -138 -155 -163l-6 14c80 31 113 88 140 158l15 38h-10c-6 0 -10 3 -13 8l-197 472h26l169 -406l22 -52h13l22 54l169 404h26z" />
    <glyph glyph-name="ydieresis" unicode="&#xff;" horiz-adv-x="506" 
d="M172 596h-10c-7 0 -10 4 -10 11v56c0 7 3 11 10 11h10c7 0 10 -4 10 -11v-56c0 -7 -3 -11 -10 -11zM349 596h-10c-7 0 -10 4 -10 11v56c0 7 3 11 10 11h10c7 0 10 -4 10 -11v-56c0 -7 -3 -11 -10 -11zM477 480l-221 -527c-34 -79 -69 -138 -155 -163l-6 14
c80 31 113 88 140 158l15 38h-10c-6 0 -10 3 -13 8l-197 472h26l169 -406l22 -52h13l22 54l169 404h26z" />
    <glyph glyph-name="ygrave" unicode="&#x1ef3;" horiz-adv-x="506" 
d="M281 554l-153 141l18 17l149 -145zM477 480l-221 -527c-34 -79 -69 -138 -155 -163l-6 14c80 31 113 88 140 158l15 38h-10c-6 0 -10 3 -13 8l-197 472h26l169 -406l22 -52h13l22 54l169 404h26z" />
    <glyph glyph-name="z" unicode="z" horiz-adv-x="499" 
d="M446 22v-22h-393v22l359 436h-356v22h387v-22l-359 -436h362z" />
    <glyph glyph-name="zacute" unicode="&#x17a;" horiz-adv-x="499" 
d="M213 554l-14 13l149 145l18 -17zM446 22v-22h-393v22l359 436h-356v22h387v-22l-359 -436h362z" />
    <glyph glyph-name="zcaron" unicode="&#x17e;" horiz-adv-x="499" 
d="M239 569l-137 117l13 12l129 -102h8l130 102l12 -12l-137 -117h-18zM446 22v-22h-393v22l359 436h-356v22h387v-22l-359 -436h362z" />
    <glyph glyph-name="zdotaccent" unicode="&#x17c;" horiz-adv-x="499" 
d="M252 592h-10c-8 0 -12 4 -12 12v62c0 8 4 12 12 12h10c8 0 12 -4 12 -12v-62c0 -8 -4 -12 -12 -12zM446 22v-22h-393v22l359 436h-356v22h387v-22l-359 -436h362z" />
    <glyph glyph-name="c_t" horiz-adv-x="783" 
d="M581 458v-362c0 -53 29 -80 80 -80h88l3 -16c-27 -4 -68 -6 -85 -6c-74 0 -110 36 -110 101v363h-265c-145 0 -198 -52 -198 -218c0 -177 50 -229 188 -229c24 0 80 3 118 12l4 -18c-38 -10 -83 -17 -125 -17c-153 0 -210 67 -210 252c0 173 58 240 219 240h269v151h24
v-151h178v-22h-178z" />
    <glyph glyph-name="f_f_y" horiz-adv-x="1127" 
d="M1098 480l-221 -527c-34 -79 -69 -138 -155 -163l-6 14c80 31 111 89 140 158l16 38h-11c-6 0 -10 3 -13 8l-164 393c-16 39 -43 57 -86 57h-148v-458h-24v458h-280v-458h-24v458h-87v17l87 5v81c0 88 33 133 125 133c28 0 84 -1 118 -4v-18h-110
c-80 0 -109 -29 -109 -111v-81h280v101c0 88 33 133 125 133c28 0 84 -1 118 -4v-18h-110c-80 0 -109 -29 -109 -111v-101h150c53 0 86 -22 107 -71l139 -335l22 -52h13l22 53l169 405h26z" />
    <glyph glyph-name="f_t" horiz-adv-x="665" 
d="M463 458v-362c0 -53 29 -80 80 -80h88l3 -16c-27 -4 -68 -6 -85 -6c-74 0 -110 36 -110 101v363h-293v-458h-24v458h-87v17l87 5v101c0 88 33 133 125 133c28 0 84 -1 118 -4v-18h-110c-80 0 -109 -29 -109 -111v-101h293v151h24v-151h178v-22h-178z" />
    <glyph glyph-name="f_y" horiz-adv-x="823" 
d="M794 480l-221 -527c-34 -79 -69 -138 -155 -163l-6 14c80 31 113 88 140 158l15 38h-10c-6 0 -10 3 -13 8l-164 393c-16 39 -43 57 -86 57h-148v-458h-24v458h-87v17l87 5v101c0 88 33 133 125 133c28 0 84 -1 118 -4v-18h-110c-80 0 -109 -29 -109 -111v-101h150
c53 0 86 -22 107 -71l139 -335l22 -52h12l12 28l180 430h26z" />
    <glyph glyph-name="s_t" horiz-adv-x="835" 
d="M633 458v-362c0 -53 29 -80 80 -80h88l3 -16c-27 -4 -68 -6 -85 -6c-74 0 -110 36 -110 101v363h-370c-107 0 -153 -1 -153 -93c0 -71 29 -95 80 -101l162 -20c72 -9 109 -46 109 -122c0 -122 -68 -133 -189 -133c-47 0 -101 1 -174 11l3 18c63 -6 108 -8 172 -7
c120 2 164 15 164 111c0 70 -37 93 -85 99l-162 20c-67 8 -104 41 -104 124c0 109 60 115 177 115h370v151h24v-151h178v-22h-178z" />
    <glyph glyph-name="t_t" horiz-adv-x="664" 
d="M462 458v-362c0 -53 29 -80 80 -80h88l3 -16c-27 -4 -68 -6 -85 -6c-74 0 -110 36 -110 101v363h-293v-362c0 -53 29 -80 80 -80h88l3 -16c-27 -4 -68 -6 -85 -6c-74 0 -110 36 -110 101v363h-87v17l87 5v151h24v-151h293v151h24v-151h178v-22h-178z" />
    <glyph glyph-name="t_y" horiz-adv-x="851" 
d="M822 480l-221 -527c-34 -79 -69 -138 -155 -163l-6 14c80 31 111 89 140 158l16 38h-11c-6 0 -10 3 -13 8l-164 393c-16 39 -43 57 -86 57h-177v-362c0 -53 29 -80 80 -80h88l3 -16c-27 -4 -68 -6 -85 -6c-74 0 -110 36 -110 101v363h-87v17l87 5v151h24v-151h181
c51 0 84 -22 104 -69l140 -337l22 -52h13l16 39l175 419h26z" />
    <glyph glyph-name="ordfeminine" unicode="&#xaa;" horiz-adv-x="444" 
d="M96 570l-3 16c46 6 94 14 165 14c60 0 97 -25 97 -92v-238h-17l-4 63c-30 -29 -99 -67 -165 -67c-57 0 -90 29 -90 82v41c0 48 30 76 84 76h170v43c0 40 -18 72 -77 72c-51 0 -110 -4 -160 -10zM102 389v-40c0 -41 24 -62 70 -63c53 -1 122 29 161 64v99l-168 -3
c-42 -1 -63 -21 -63 -57z" />
    <glyph glyph-name="ordmasculine" unicode="&#xba;" horiz-adv-x="449" 
d="M224 600c111 0 150 -45 150 -169s-39 -169 -150 -169c-110 0 -149 45 -149 169s39 169 149 169zM224 581c-93 0 -126 -36 -126 -150c0 -113 33 -149 126 -149s126 36 126 149c0 114 -33 150 -126 150z" />
    <glyph glyph-name="uni0410" unicode="&#x410;" horiz-adv-x="603" 
d="M466 252h-329l-91 -252h-27l248 681c2 6 7 9 13 9h43c6 0 11 -3 13 -9l248 -681h-27zM458 274l-122 338l-20 56h-29l-20 -56l-122 -338h313z" />
    <glyph glyph-name="uni0411" unicode="&#x411;" horiz-adv-x="592" 
d="M128 370h194c159 0 207 -52 207 -189c0 -150 -58 -189 -207 -189c-104 0 -148 1 -219 8v690c66 3 133 4 199 4c65 0 129 -1 194 -4l-3 -20h-365v-300zM128 347v-330c34 -1 103 -2 194 -2c130 0 181 30 181 166c0 123 -41 166 -181 166h-194z" />
    <glyph glyph-name="uni0412" unicode="&#x412;" horiz-adv-x="612" 
d="M402 360v-4c103 -9 137 -74 137 -184c0 -142 -56 -180 -212 -180c-104 0 -153 1 -224 8v690c62 7 104 8 194 8c163 0 222 -38 222 -180c0 -99 -35 -150 -117 -158zM128 368h189c129 1 176 30 176 150c0 128 -52 157 -196 157c-77 0 -139 -1 -169 -2v-305zM128 347v-330
c35 -1 108 -2 199 -2c137 0 186 29 186 157c0 137 -52 173 -196 175h-189z" />
    <glyph glyph-name="uni0413" unicode="&#x413;" horiz-adv-x="514" 
d="M100 0v588c0 59 43 102 102 102c96 0 189 0 285 -4l-2 -18h-278c-48 0 -82 -34 -82 -82v-586h-25z" />
    <glyph glyph-name="uni0403" unicode="&#x403;" horiz-adv-x="514" 
d="M416 877l-153 -141l-14 13l149 145zM100 0v588c0 59 43 102 102 102c96 0 189 0 285 -4l-2 -18h-278c-48 0 -82 -34 -82 -82v-586h-25z" />
    <glyph glyph-name="uni0490" unicode="&#x490;" horiz-adv-x="513" 
d="M486 841v-155l-1 -18h-278c-48 0 -82 -34 -82 -82v-586h-25v588c0 59 43 102 102 102c89 0 174 0 262 -3l5 154h17z" />
    <glyph glyph-name="uni0414" unicode="&#x414;" horiz-adv-x="655" 
d="M617 22v-173h-18l-6 151h-544l-6 -151h-18v173h55c92 160 114 367 119 565c1 67 37 103 103 103h233v-668h82zM510 22v646h-206c-52 0 -80 -28 -81 -81c-4 -196 -25 -402 -114 -565h401z" />
    <glyph glyph-name="uni0415" unicode="&#x415;" horiz-adv-x="551" 
d="M491 22l2 -18c-98 -4 -196 -4 -294 -4c-59 0 -102 43 -102 102v486c0 59 43 102 102 102c98 0 196 0 294 -4l-2 -18h-287c-48 0 -82 -34 -82 -82v-206h328v-21h-328v-255c0 -48 34 -82 82 -82h287z" />
    <glyph glyph-name="uni0401" unicode="&#x401;" horiz-adv-x="551" 
d="M226 803h-10c-7 0 -10 4 -10 11v56c0 7 3 11 10 11h10c7 0 10 -4 10 -11v-56c0 -7 -3 -11 -10 -11zM403 803h-10c-7 0 -10 4 -10 11v56c0 7 3 11 10 11h10c7 0 10 -4 10 -11v-56c0 -7 -3 -11 -10 -11zM491 22l2 -18c-98 -4 -196 -4 -294 -4c-59 0 -102 43 -102 102v486
c0 59 43 102 102 102c98 0 196 0 294 -4l-2 -18h-287c-48 0 -82 -34 -82 -82v-206h328v-21h-328v-255c0 -48 34 -82 82 -82h287z" />
    <glyph glyph-name="uni0416" unicode="&#x416;" horiz-adv-x="878" 
d="M580 361v-2c126 -8 182 -184 255 -359h-27c-78 186 -126 348 -275 349h-81c2 -31 3 -57 3 -86v-263h-24v263c0 29 1 55 3 86h-89c-149 -1 -197 -163 -275 -349h-27c73 175 129 351 255 359v2c-115 10 -179 188 -238 329h26c63 -149 123 -319 259 -319h89
c-3 30 -3 51 -3 83v236h24v-236c0 -32 0 -53 -3 -83h81c136 0 196 170 259 319h26c-59 -141 -123 -319 -238 -329z" />
    <glyph glyph-name="uni0417" unicode="&#x417;" horiz-adv-x="544" 
d="M61 667l-4 18c59 9 109 13 171 13c163 0 222 -38 222 -180c0 -99 -35 -150 -117 -158v-4c103 -9 137 -74 137 -184c0 -142 -56 -180 -212 -180c-79 0 -152 4 -214 14l4 18c28 -1 108 -9 210 -9c137 0 186 29 186 157c0 137 -52 175 -196 175h-101v21h101
c129 0 176 30 176 150c0 128 -52 157 -196 157c-83 0 -144 -7 -167 -8z" />
    <glyph glyph-name="uni0418" unicode="&#x418;" horiz-adv-x="678" 
d="M575 0h-25v583v68h-1c-11 -19 -23 -42 -35 -60l-387 -591h-24v690h25v-580v-71h1c12 18 28 47 40 66l382 585h24v-690z" />
    <glyph glyph-name="uni0419" unicode="&#x419;" horiz-adv-x="678" 
d="M451 877h24c0 -71 -52 -122 -135 -122c-84 0 -137 51 -137 122h24c0 -66 46 -104 113 -104c65 0 111 38 111 104zM575 0h-25v583v68h-1c-11 -19 -23 -42 -35 -60l-387 -591h-24v690h25v-580v-71h1c12 18 28 47 40 66l382 585h24v-690z" />
    <glyph glyph-name="uni040D" unicode="&#x40d;" horiz-adv-x="678" 
d="M380 749l-14 -13l-153 141l18 17zM575 0h-25v583v68h-1c-11 -19 -23 -42 -35 -60l-387 -591h-24v690h25v-580v-71h1c12 18 28 47 40 66l382 585h24v-690z" />
    <glyph glyph-name="uni041A" unicode="&#x41a;" horiz-adv-x="573" 
d="M275 361v-2c126 -8 182 -184 255 -359h-27c-78 186 -126 348 -275 349h-103c2 -31 2 -57 2 -86v-263h-24v690h24v-236c0 -32 -1 -53 -2 -83h103c136 0 196 170 259 319h26c-59 -141 -123 -319 -238 -329z" />
    <glyph glyph-name="uni040C" unicode="&#x40c;" horiz-adv-x="573" 
d="M254 736l-14 13l149 145l18 -17zM275 361v-2c126 -8 182 -184 255 -359h-27c-78 186 -126 348 -275 349h-103c2 -31 2 -57 2 -86v-263h-24v690h24v-236c0 -32 -1 -53 -2 -83h103c136 0 196 170 259 319h26c-59 -141 -123 -319 -238 -329z" />
    <glyph glyph-name="uni041B" unicode="&#x41b;" horiz-adv-x="632" 
d="M529 690v-690h-25v668h-194c-52 0 -82 -28 -86 -83c-25 -292 -30 -377 -88 -472c-29 -49 -71 -96 -118 -113l-4 20c29 16 61 40 99 102c57 95 60 158 87 465c6 68 42 103 106 103h223z" />
    <glyph glyph-name="uni041C" unicode="&#x41c;" horiz-adv-x="854" 
d="M679 690h42c9 0 15 -6 15 -15l30 -675h-25l-30 668h-24l-226 -599c-2 -6 -7 -9 -13 -9h-42c-6 0 -11 3 -13 9l-226 599h-24l-30 -668h-25l30 675c0 9 6 15 15 15h42c6 0 11 -3 13 -9l191 -505c12 -31 23 -63 35 -94h26l36 96l190 503c2 6 7 9 13 9z" />
    <glyph glyph-name="uni041D" unicode="&#x41d;" horiz-adv-x="657" 
d="M554 690v-690h-25v359h-401v-359h-25v690h25v-309h401v309h25z" />
    <glyph glyph-name="uni041E" unicode="&#x41e;" horiz-adv-x="662" 
d="M331 702c189 0 255 -94 255 -357s-66 -357 -255 -357s-255 94 -255 357s66 357 255 357zM331 679c-170 0 -229 -86 -229 -334s59 -334 229 -334s229 86 229 334s-59 334 -229 334z" />
    <glyph glyph-name="uni041F" unicode="&#x41f;" horiz-adv-x="661" 
d="M558 690v-690h-25v668h-405v-668h-25v690h455z" />
    <glyph glyph-name="uni0420" unicode="&#x420;" horiz-adv-x="581" 
d="M103 0v690c70 7 118 8 221 8c146 0 199 -45 199 -203c0 -160 -53 -203 -199 -203c-89 0 -162 2 -196 4v-296h-25zM128 315h196c127 2 173 37 173 180s-46 180 -173 180c-90 0 -162 -1 -196 -2v-358z" />
    <glyph glyph-name="uni0421" unicode="&#x421;" horiz-adv-x="561" 
d="M513 24l6 -18c-53 -12 -104 -18 -188 -18c-189 0 -255 94 -255 357s66 357 255 357c79 0 122 -5 174 -17l-6 -18c-56 9 -93 12 -168 12c-170 0 -229 -86 -229 -334s59 -334 229 -334c80 0 130 4 182 13z" />
    <glyph glyph-name="uni0422" unicode="&#x422;" horiz-adv-x="564" 
d="M537 668h-243v-668h-25v668h-242v22h510v-22z" />
    <glyph glyph-name="uni0423" unicode="&#x423;" horiz-adv-x="537" 
d="M514 690l-202 -529c-29 -77 -56 -162 -126 -167c-27 -2 -68 3 -96 12l3 16c129 -21 139 -3 196 143l16 40h-45c-23 0 -42 13 -50 35l-174 450h26l169 -441c5 -14 17 -22 31 -22h51l175 463h26z" />
    <glyph glyph-name="uni040E" unicode="&#x40e;" horiz-adv-x="537" 
d="M388 873l18 -4c0 -71 -52 -114 -135 -114c-84 0 -137 43 -137 114l18 4c0 -60 46 -94 119 -94c71 0 117 34 117 94zM514 690l-202 -529c-29 -77 -56 -162 -126 -167c-27 -2 -68 3 -96 12l3 16c129 -21 139 -3 196 143l16 40h-45c-23 0 -42 13 -50 35l-174 450h26
l169 -441c5 -14 17 -22 31 -22h51l175 463h26z" />
    <glyph glyph-name="uni0424" unicode="&#x424;" horiz-adv-x="821" 
d="M423 758v-106c236 -3 323 -81 323 -297s-87 -294 -323 -297v-106h-25v106c-236 3 -323 81 -323 297s87 294 323 297v106h25zM398 80v550c-217 -2 -297 -67 -297 -275s80 -273 297 -275zM423 630v-550c217 2 297 67 297 275s-80 273 -297 275z" />
    <glyph glyph-name="uni0425" unicode="&#x425;" horiz-adv-x="599" 
d="M315 350h-31l-213 -350h-30l219 360l-206 330h30l199 -318h33l199 318h30l-206 -330l219 -360h-30z" />
    <glyph glyph-name="uni0427" unicode="&#x427;" horiz-adv-x="605" 
d="M502 690v-690h-25v351c-95 -62 -180 -83 -268 -83c-93 0 -138 48 -138 145v277h25v-274c0 -86 37 -125 118 -125c96 0 162 21 263 83v316h25z" />
    <glyph glyph-name="uni0426" unicode="&#x426;" horiz-adv-x="672" 
d="M633 22v-173h-18l-6 151h-506v690h25v-668h398v668h25v-668h82z" />
    <glyph glyph-name="uni0428" unicode="&#x428;" horiz-adv-x="901" 
d="M798 690v-690h-695v690h25v-668h310v668h25v-668h310v668h25z" />
    <glyph glyph-name="uni0429" unicode="&#x429;" horiz-adv-x="908" 
d="M870 22v-173h-18l-6 151h-743v690h25v-668h305v668h25v-668h305v668h25v-668h82z" />
    <glyph glyph-name="uni040F" unicode="&#x40f;" horiz-adv-x="666" 
d="M563 690v-690h-218l-2 -151h-18l-4 151h-218v690h25v-668h410v668h25z" />
    <glyph glyph-name="uni042F" unicode="&#x42f;" horiz-adv-x="602" 
d="M208 306l-1 6c-81 13 -118 100 -118 182c0 154 63 204 199 204c98 0 144 -1 211 -8v-690h-25v304c-34 -2 -108 -4 -205 -4c-53 0 -90 -26 -113 -92l-74 -208h-28l76 211c19 52 44 84 78 95zM474 323v350c-33 1 -101 2 -186 2c-117 0 -173 -42 -173 -181
c0 -94 41 -171 156 -171h203z" />
    <glyph glyph-name="uni042C" unicode="&#x42c;" horiz-adv-x="587" 
d="M128 384h194c159 0 207 -55 207 -196c0 -155 -58 -196 -207 -196c-104 0 -148 1 -219 8v690h25v-306zM128 361v-344c34 -1 103 -2 194 -2c130 0 181 32 181 173c0 127 -41 173 -181 173h-194z" />
    <glyph glyph-name="uni042A" unicode="&#x42a;" horiz-adv-x="744" 
d="M285 384h194c159 0 207 -55 207 -196c0 -155 -58 -196 -207 -196c-104 0 -148 1 -219 8v668h-233v22h258v-306zM285 361v-344c34 -1 103 -2 194 -2c130 0 181 32 181 173c0 127 -41 173 -181 173h-194z" />
    <glyph glyph-name="uni042B" unicode="&#x42b;" horiz-adv-x="809" 
d="M128 384h194c159 0 207 -55 207 -196c0 -155 -58 -196 -207 -196c-104 0 -148 1 -219 8v690h25v-306zM706 690v-690h-25v690h25zM128 361v-344c34 -1 103 -2 194 -2c130 0 181 32 181 173c0 127 -41 173 -181 173h-194z" />
    <glyph glyph-name="uni0409" unicode="&#x409;" horiz-adv-x="965" 
d="M516 384h184c159 0 207 -55 207 -196c0 -155 -58 -196 -207 -196c-99 0 -141 1 -209 8v668h-169c-52 0 -82 -28 -86 -83c-25 -292 -30 -377 -88 -472c-29 -49 -68 -101 -118 -113l-4 18c29 16 61 40 99 104c57 95 60 158 87 465c6 68 42 103 106 103h198v-306zM516 361
v-344c33 -1 98 -2 184 -2c130 0 181 32 181 173c0 127 -41 173 -181 173h-184z" />
    <glyph glyph-name="uni040A" unicode="&#x40a;" horiz-adv-x="983" 
d="M534 382h184c159 0 207 -55 207 -194c0 -155 -58 -196 -207 -196c-99 0 -141 1 -209 8v359h-381v-359h-25v690h25v-309h381v309h25v-308zM534 359v-342c33 -1 98 -2 184 -2c130 0 181 32 181 173c0 125 -41 171 -181 171h-184z" />
    <glyph glyph-name="uni0405" unicode="&#x405;" horiz-adv-x="554" 
d="M353 326l-153 21c-97 11 -134 65 -134 177c0 166 68 179 208 177c63 -1 127 -5 187 -12l-3 -19c-60 4 -122 8 -184 8c-128 0 -183 -3 -183 -154c0 -101 30 -142 109 -153l153 -21c101 -12 139 -60 139 -181c0 -164 -75 -180 -210 -180c-55 0 -119 1 -204 11l3 19
c75 -6 126 -8 202 -7c133 2 184 20 184 157c0 109 -31 146 -114 157z" />
    <glyph glyph-name="uni0404" unicode="&#x404;" horiz-adv-x="570" 
d="M519 24l6 -18c-53 -12 -100 -18 -184 -18c-196 0 -265 94 -265 357s69 357 265 357c79 0 124 -5 176 -17l-6 -18c-56 9 -95 12 -170 12c-168 0 -233 -78 -239 -299h318v-21h-318v-14c0 -248 62 -334 239 -334c80 0 126 4 178 13z" />
    <glyph glyph-name="uni042D" unicode="&#x42d;" horiz-adv-x="570" 
d="M59 667l-6 18c52 12 97 17 176 17c196 0 265 -94 265 -357s-69 -357 -265 -357c-84 0 -131 6 -184 18l6 18c52 -9 98 -13 178 -13c177 0 239 86 239 334v15h-318v21h318c-6 220 -71 298 -239 298c-75 0 -114 -3 -170 -12z" />
    <glyph glyph-name="uni0406" unicode="&#x406;" horiz-adv-x="231" 
d="M128 0h-25v690h25v-690z" />
    <glyph glyph-name="uni0407" unicode="&#x407;" horiz-adv-x="231" 
d="M21 856h10c7 0 10 -4 10 -11v-56c0 -7 -3 -11 -10 -11h-10c-7 0 -10 4 -10 11v56c0 7 3 11 10 11zM198 856h10c7 0 10 -4 10 -11v-56c0 -7 -3 -11 -10 -11h-10c-7 0 -10 4 -10 11v56c0 7 3 11 10 11zM128 0h-25v690h25v-690z" />
    <glyph glyph-name="uni0408" unicode="&#x408;" horiz-adv-x="324" 
d="M224 690v-575c0 -80 -40 -122 -122 -121c-18 0 -46 3 -64 6l3 16h58c67 0 100 33 100 100v574h25z" />
    <glyph glyph-name="uni040B" unicode="&#x40b;" horiz-adv-x="790" 
d="M294 668v-319c100 62 190 83 282 83c97 0 144 -48 144 -145v-287h-25v284c0 86 -39 125 -124 125c-100 0 -171 -21 -277 -83v-326h-25v668h-242v22h510v-22h-243z" />
    <glyph glyph-name="uni042E" unicode="&#x42e;" horiz-adv-x="893" 
d="M129 371h188c4 243 69 331 245 331c189 0 255 -94 255 -357s-66 -357 -255 -357c-182 0 -245 94 -245 357v4h-188v-349h-25v690h25v-319zM562 11c170 0 229 86 229 334s-59 334 -229 334c-163 0 -219 -86 -219 -334s56 -334 219 -334z" />
    <glyph glyph-name="uni0402" unicode="&#x402;" horiz-adv-x="748" 
d="M294 668v-317c87 62 149 81 231 81c109 0 165 -56 165 -207c0 -169 -98 -229 -252 -224l-2 17c138 7 229 46 229 206c0 144 -51 185 -144 185c-94 0 -147 -27 -227 -82v-327h-25v668h-242v22h510v-22h-243z" />
    <glyph glyph-name="uni04B0" unicode="&#x4b0;" horiz-adv-x="556" 
d="M294 263h159v-20h-162v-243h-25v243h-163v20h160l-233 427h28l180 -333c12 -22 25 -46 38 -68h5c12 22 26 46 37 67l180 334h28z" />
    <glyph glyph-name="uni04B6" unicode="&#x4b6;" horiz-adv-x="619" 
d="M579 22v-173h-18l-6 151h-78v350c-92 -61 -176 -82 -262 -82c-97 0 -144 48 -144 145v277h25v-274c0 -86 39 -125 124 -125c92 0 159 21 257 82v317h25v-668h77z" />
    <glyph glyph-name="uni04BA" unicode="&#x4ba;" horiz-adv-x="605" 
d="M128 690v-350c92 61 176 82 262 82c97 0 144 -48 144 -145v-277h-25v274c0 86 -39 125 -124 125c-92 0 -159 -21 -257 -82v-317h-25v690h25z" />
    <glyph glyph-name="uni04C0" unicode="&#x4c0;" horiz-adv-x="231" 
d="M128 0h-25v690h25v-690z" />
    <glyph glyph-name="uni0430" unicode="&#x430;" horiz-adv-x="538" 
d="M88 453l-3 18c64 9 129 21 229 21c82 0 133 -38 133 -134v-358h-18l-5 93c-41 -42 -141 -99 -233 -99c-79 0 -125 43 -125 121v62c0 72 42 113 115 113h242v68c0 61 -25 111 -110 111c-72 0 -154 -7 -225 -16zM91 177v-62c0 -63 34 -96 100 -97c76 -2 177 46 232 99v153
l-242 -4c-59 -1 -90 -32 -90 -89z" />
    <glyph glyph-name="uni0431" unicode="&#x431;" horiz-adv-x="561" 
d="M455 733l7 -17c-69 -48 -125 -59 -175 -73c-137 -40 -165 -112 -175 -232c-2 -22 -3 -44 -4 -68h1c12 53 46 124 194 124c140 0 187 -63 187 -240c0 -141 -30 -239 -202 -239c-188 0 -202 118 -202 307c0 224 22 318 195 368c61 18 101 23 174 70zM299 444
c-160 0 -188 -87 -188 -212c0 -166 50 -221 180 -221c128 0 174 54 174 222c0 158 -41 211 -166 211z" />
    <glyph glyph-name="uni0432" unicode="&#x432;" horiz-adv-x="547" 
d="M358 248v-2c91 -7 121 -51 121 -127c0 -98 -49 -125 -187 -125c-92 0 -135 1 -198 6v479c55 5 92 6 171 6c145 0 197 -27 197 -128c0 -68 -31 -103 -104 -109zM117 257h166c113 1 154 19 154 99c0 87 -46 107 -172 107c-67 1 -120 0 -148 -1v-205zM117 237v-220
c31 -1 95 -2 174 -1c120 0 163 20 163 104c0 91 -45 117 -171 117h-166z" />
    <glyph glyph-name="uni0433" unicode="&#x433;" horiz-adv-x="438" 
d="M92 0v386c0 59 34 94 92 94c76 0 147 0 224 -3v-19h-219c-50 0 -73 -24 -73 -75v-383h-24z" />
    <glyph glyph-name="uni0453" unicode="&#x453;" horiz-adv-x="438" 
d="M376 695l-153 -141l-14 13l149 145zM92 0v386c0 59 34 94 92 94c76 0 147 0 224 -3v-19h-219c-50 0 -73 -24 -73 -75v-383h-24z" />
    <glyph glyph-name="uni0491" unicode="&#x491;" horiz-adv-x="438" 
d="M408 627v-169h-219c-50 0 -73 -24 -73 -75v-383h-24v386c0 59 34 94 92 94c77 0 128 0 202 -2l5 149h17z" />
    <glyph glyph-name="uni0434" unicode="&#x434;" horiz-adv-x="549" 
d="M496 21v-166h-18l-5 145h-420l-5 -145h-18v166h42c72 107 91 239 97 368c3 59 34 91 93 91h180v-459h54zM418 21v438h-153c-46 0 -70 -25 -72 -71c-5 -127 -23 -259 -93 -367h318z" />
    <glyph glyph-name="uni0435" unicode="&#x435;" horiz-adv-x="527" 
d="M361 227h-267c4 -161 62 -216 192 -216c65 0 126 7 163 13l4 -18c-32 -10 -118 -18 -170 -18c-152 0 -214 71 -214 254c0 184 58 250 206 250c125 0 187 -45 189 -136c2 -85 -25 -129 -103 -129zM94 249h267c59 0 80 37 78 105c-2 80 -56 115 -163 115
c-132 0 -181 -59 -182 -220z" />
    <glyph glyph-name="uni0451" unicode="&#x451;" horiz-adv-x="527" 
d="M193 596h-10c-7 0 -10 4 -10 11v56c0 7 3 11 10 11h10c7 0 10 -4 10 -11v-56c0 -7 -3 -11 -10 -11zM370 596h-10c-7 0 -10 4 -10 11v56c0 7 3 11 10 11h10c7 0 10 -4 10 -11v-56c0 -7 -3 -11 -10 -11zM361 227h-267c4 -161 62 -216 192 -216c65 0 126 7 163 13l4 -18
c-32 -10 -118 -18 -170 -18c-152 0 -214 71 -214 254c0 184 58 250 206 250c125 0 187 -45 189 -136c2 -85 -25 -129 -103 -129zM94 249h267c59 0 80 37 78 105c-2 80 -56 115 -163 115c-132 0 -181 -59 -182 -220z" />
    <glyph glyph-name="uni0436" unicode="&#x436;" horiz-adv-x="759" 
d="M517 251v-1c98 -7 140 -122 197 -250h-27c-60 133 -96 239 -208 240h-87c2 -20 3 -38 3 -58v-182h-24v182c0 20 1 38 3 58h-93c-112 -1 -148 -107 -208 -240h-27c57 128 99 243 197 250v1c-90 8 -138 125 -184 229h27c48 -107 94 -219 197 -219h91c-3 20 -3 36 -3 58v161
h24v-161c0 -22 0 -38 -3 -58h85c103 0 149 112 197 219h27c-46 -104 -94 -221 -184 -229z" />
    <glyph glyph-name="uni0437" unicode="&#x437;" horiz-adv-x="472" 
d="M59 458l-4 18c48 8 93 10 133 10c151 0 201 -27 201 -125c0 -67 -22 -106 -103 -113v-2c84 -7 117 -46 117 -128c0 -84 -48 -124 -193 -124c-47 0 -115 3 -163 10l4 18c24 -1 92 -6 158 -6c128 0 168 32 168 105c0 90 -44 114 -165 116h-93v20h93c117 1 152 22 152 101
c0 89 -44 106 -182 106c-47 0 -97 -2 -123 -6z" />
    <glyph glyph-name="uni0438" unicode="&#x438;" horiz-adv-x="581" 
d="M487 0h-24v393v52h-1c-8 -13 -19 -28 -29 -41l-317 -404h-22v480h24v-389v-56h1c10 15 22 31 33 45l313 400h22v-480z" />
    <glyph glyph-name="uni0439" unicode="&#x439;" horiz-adv-x="581" 
d="M391 695h24c0 -71 -52 -122 -135 -122c-84 0 -137 51 -137 122h24c0 -66 46 -104 113 -104c65 0 111 38 111 104zM487 0h-24v393v52h-1c-8 -13 -19 -28 -29 -41l-317 -404h-22v480h24v-389v-56h1c10 15 22 31 33 45l313 400h22v-480z" />
    <glyph glyph-name="uni045D" unicode="&#x45d;" horiz-adv-x="581" 
d="M320 567l-14 -13l-153 141l18 17zM487 0h-24v393v52h-1c-8 -13 -19 -28 -29 -41l-317 -404h-22v480h24v-389v-56h1c10 15 22 31 33 45l313 400h22v-480z" />
    <glyph glyph-name="uni043A" unicode="&#x43a;" horiz-adv-x="515" 
d="M258 251v-1c106 -7 152 -122 213 -250h-27c-64 133 -104 239 -227 240h-101c2 -20 2 -38 2 -58v-182h-24v480h24v-161c0 -22 -1 -38 -2 -58h100c113 0 162 112 215 219h26c-50 -104 -102 -221 -199 -229z" />
    <glyph glyph-name="uni045C" unicode="&#x45c;" horiz-adv-x="515" 
d="M240 554l-14 13l149 145l18 -17zM258 251v-1c106 -7 152 -122 213 -250h-27c-64 133 -104 239 -227 240h-101c2 -20 2 -38 2 -58v-182h-24v480h24v-161c0 -22 -1 -38 -2 -58h100c113 0 162 112 215 219h26c-50 -104 -102 -221 -199 -229z" />
    <glyph glyph-name="uni043B" unicode="&#x43b;" horiz-adv-x="537" 
d="M442 480v-480h-24v459h-153c-48 0 -69 -24 -74 -70c-11 -98 -19 -219 -60 -300c-21 -41 -56 -79 -104 -94l-4 21c47 21 73 54 88 84c42 84 49 231 57 290s35 90 99 90h175z" />
    <glyph glyph-name="uni043C" unicode="&#x43c;" horiz-adv-x="720" 
d="M562 480h36c8 0 14 -5 14 -13l25 -467h-24l-24 458h-20l-179 -405c-3 -6 -6 -9 -12 -9h-36c-6 0 -9 3 -12 9l-179 405h-20l-24 -458h-24l25 467c0 8 5 13 14 13h37c6 0 10 -3 12 -9l150 -341c10 -22 20 -44 29 -66h20c10 23 19 45 29 67l150 340c2 6 7 9 13 9z" />
    <glyph glyph-name="uni043D" unicode="&#x43d;" horiz-adv-x="566" 
d="M472 480v-480h-24v246h-330v-246h-24v480h24v-213h330v213h24z" />
    <glyph glyph-name="uni043E" unicode="&#x43e;" 
d="M280 492c155 0 210 -67 210 -252s-55 -252 -210 -252s-210 67 -210 252s55 252 210 252zM280 469c-136 0 -185 -56 -185 -229s49 -229 185 -229s185 56 185 229s-49 229 -185 229z" />
    <glyph glyph-name="uni043F" unicode="&#x43f;" horiz-adv-x="564" 
d="M470 480v-480h-24v459h-328v-459h-24v480h376z" />
    <glyph glyph-name="uni0440" unicode="&#x440;" horiz-adv-x="561" 
d="M113 480l4 -87c71 66 133 99 199 99c126 0 174 -70 174 -252s-48 -252 -174 -252c-66 0 -129 19 -200 53c4 -34 3 -57 3 -92v-159h-24v690h18zM119 372v-313c80 -32 134 -48 197 -48c107 0 149 61 149 229s-42 229 -149 229c-63 0 -117 -29 -197 -97z" />
    <glyph glyph-name="uni0441" unicode="&#x441;" horiz-adv-x="478" 
d="M430 23l4 -18c-44 -10 -97 -17 -145 -17c-160 0 -220 67 -220 252s60 252 219 252c36 0 93 -4 135 -17l-6 -18c-35 9 -93 12 -125 12c-145 0 -198 -52 -198 -229s53 -229 198 -229c28 0 94 3 138 12z" />
    <glyph glyph-name="uni0442" unicode="&#x442;" horiz-adv-x="470" 
d="M440 458h-193v-458h-25v458h-192v22h410v-22z" />
    <glyph glyph-name="uni0443" unicode="&#x443;" horiz-adv-x="506" 
d="M477 480l-221 -527c-17 -42 -45 -99 -84 -131c-37 -26 -83 -36 -130 -28l2 14c38 -2 82 5 118 32c32 29 55 76 73 122l15 38h-10c-6 0 -10 3 -13 8l-197 472h26l169 -406l22 -52h13l22 54l169 404h26z" />
    <glyph glyph-name="uni045E" unicode="&#x45e;" horiz-adv-x="506" 
d="M369 695h24c0 -71 -52 -122 -135 -122c-84 0 -137 51 -137 122h24c0 -66 46 -104 113 -104c65 0 111 38 111 104zM477 480l-221 -527c-17 -42 -45 -99 -84 -131c-37 -26 -83 -36 -130 -28l2 14c38 -2 82 5 118 32c32 29 55 76 73 122l15 38h-10c-6 0 -10 3 -13 8
l-197 472h26l169 -406l22 -52h13l22 54l169 404h26z" />
    <glyph glyph-name="uni0444" unicode="&#x444;" horiz-adv-x="696" 
d="M361 700v-208c194 -3 267 -75 267 -252s-73 -249 -267 -252v-198h-25v198c-195 3 -268 75 -268 252s73 249 268 252v208h25zM336 11v458c-176 -3 -243 -60 -243 -229s67 -226 243 -229zM361 469v-458c175 3 242 60 242 229s-67 226 -242 229z" />
    <glyph glyph-name="uni0445" unicode="&#x445;" horiz-adv-x="505" 
d="M264 240h-23l-175 -240h-30l182 250l-169 230h30l160 -218h27l160 218h30l-169 -230l182 -250h-30z" />
    <glyph glyph-name="uni0447" unicode="&#x447;" horiz-adv-x="505" 
d="M411 480v-480h-24v236c-78 -39 -150 -54 -221 -54c-66 0 -101 34 -101 102v196h24v-192c0 -57 27 -82 83 -82c77 0 133 13 215 52v222h24z" />
    <glyph glyph-name="uni0446" unicode="&#x446;" horiz-adv-x="566" 
d="M513 21v-164h-17l-6 143h-395v480h24v-459h317v459h24v-459h53z" />
    <glyph glyph-name="uni0448" unicode="&#x448;" horiz-adv-x="781" 
d="M687 480v-480h-593v480h25v-459h259v459h25v-459h260v459h24z" />
    <glyph glyph-name="uni0449" unicode="&#x449;" horiz-adv-x="795" 
d="M742 21v-164h-18l-5 143h-624v480h24v-459h260v459h24v-459h262v459h23v-459h54z" />
    <glyph glyph-name="uni045F" unicode="&#x45f;" horiz-adv-x="565" 
d="M470 480v-480h-174l-4 -168h-17l-6 168h-174v480h25v-459h325v459h25z" />
    <glyph glyph-name="uni044C" unicode="&#x44c;" horiz-adv-x="504" 
d="M118 268h159c133 0 173 -38 173 -137c0 -108 -48 -137 -172 -137c-87 0 -125 1 -184 6v480h24v-212zM118 247v-229c29 -1 86 -2 159 -2c106 0 147 22 147 116c0 85 -33 115 -147 115h-159z" />
    <glyph glyph-name="uni044A" unicode="&#x44a;" horiz-adv-x="624" 
d="M238 268h158c133 0 174 -38 174 -137c0 -108 -49 -137 -173 -137c-87 0 -124 1 -183 6v458h-184v22h208v-212zM238 247v-229c30 -1 85 -2 158 -2c106 0 148 22 148 116c0 85 -34 115 -148 115h-158z" />
    <glyph glyph-name="uni044B" unicode="&#x44b;" horiz-adv-x="674" 
d="M118 268h159c117 0 153 -38 153 -137c0 -108 -42 -137 -152 -137c-87 0 -125 1 -184 6v480h24v-212zM579 480v-480h-24v480h24zM118 247v-229c29 -1 86 -2 159 -2c92 0 127 22 127 116c0 85 -29 115 -127 115h-159z" />
    <glyph glyph-name="uni0459" unicode="&#x459;" horiz-adv-x="770" 
d="M416 279h138c123 0 161 -40 161 -143c0 -131 -61 -142 -185 -142c-37 0 -88 1 -138 6v460h-127c-39 0 -61 -18 -65 -59c-20 -205 -24 -250 -67 -318c-23 -37 -50 -66 -95 -83l-6 19c32 18 54 35 78 72c44 71 45 105 66 313c5 50 33 76 89 76h151v-201zM416 259v-242
c28 -1 80 -2 110 -2c118 0 164 11 164 121c0 90 -31 123 -136 123h-138z" />
    <glyph glyph-name="uni045A" unicode="&#x45a;" horiz-adv-x="784" 
d="M430 277h139c123 0 160 -40 160 -140c0 -113 -45 -143 -159 -143c-78 0 -111 1 -164 6v256h-287v-256h-24v480h24v-204h287v204h24v-203zM430 257v-240c27 -1 75 -2 139 -2c97 0 135 23 135 122c0 88 -30 120 -135 120h-139z" />
    <glyph glyph-name="uni0454" unicode="&#x454;" horiz-adv-x="484" 
d="M432 24l5 -19c-43 -9 -82 -13 -150 -13c-160 0 -216 65 -216 246c0 182 56 246 216 246c65 0 101 -3 144 -12l-5 -19c-46 6 -78 8 -139 8c-137 0 -187 -53 -191 -206h254v-20h-254c1 -164 50 -220 191 -220c65 0 102 3 145 9z" />
    <glyph glyph-name="uni044D" unicode="&#x44d;" horiz-adv-x="483" 
d="M58 453l-5 19c43 9 79 12 144 12c160 0 216 -64 216 -246c0 -181 -56 -246 -216 -246c-68 0 -107 4 -150 13l5 19c43 -6 80 -9 145 -9c141 0 190 56 191 221h-254v20h254c-4 152 -54 205 -191 205c-61 0 -93 -2 -139 -8z" />
    <glyph glyph-name="uni044E" unicode="&#x44e;" horiz-adv-x="767" 
d="M119 259h156c3 174 58 233 206 233c160 0 216 -63 216 -250c0 -186 -56 -250 -216 -250c-152 0 -205 63 -206 246h-156v-238h-24v480h24v-221zM481 14c141 0 190 57 190 228s-49 228 -190 228c-134 0 -180 -57 -180 -228s46 -228 180 -228z" />
    <glyph glyph-name="uni044F" unicode="&#x44f;" horiz-adv-x="525" 
d="M198 204v3c-84 1 -120 62 -120 142c0 70 40 133 155 133c94 0 133 -1 197 -6v-476h-24v195h-159c-69 0 -111 -26 -124 -67l-40 -128h-27l46 139c13 40 49 59 96 65zM406 216v242c-29 1 -95 2 -173 2c-97 0 -130 -53 -130 -115c0 -81 40 -129 144 -129h159z" />
    <glyph glyph-name="uni0452" unicode="&#x452;" horiz-adv-x="566" 
d="M140 511v-126c0 -35 -1 -66 -5 -93c83 62 159 100 234 100c85 0 129 -45 129 -131v-261h-24v258c0 76 -36 111 -110 111c-72 0 -134 -33 -226 -98v-271h-24v511h-81v20h81v169h25v-169h219v-20h-218z" />
    <glyph glyph-name="uni0455" unicode="&#x455;" horiz-adv-x="499" 
d="M328 221l-162 20c-67 8 -104 41 -104 124c0 121 60 129 177 127c58 -1 127 -5 186 -12l-3 -18c-59 4 -124 7 -183 8c-107 2 -153 -1 -153 -105c0 -71 29 -95 80 -101l162 -20c70 -9 109 -46 109 -122c0 -122 -68 -133 -189 -133c-47 0 -101 1 -174 11l3 18
c63 -6 108 -8 172 -7c120 2 164 15 164 111c0 70 -37 93 -85 99z" />
    <glyph glyph-name="uni0456" unicode="&#x456;" horiz-adv-x="220" 
d="M105 679h10c8 0 12 -4 12 -12v-62c0 -8 -4 -12 -12 -12h-10c-8 0 -12 4 -12 12v62c0 8 4 12 12 12zM122 0h-24v480h24v-480z" />
    <glyph glyph-name="uni0457" unicode="&#x457;" horiz-adv-x="220" 
d="M15 674h10c7 0 10 -4 10 -11v-56c0 -7 -3 -11 -10 -11h-10c-7 0 -10 4 -10 11v56c0 7 3 11 10 11zM192 674h10c7 0 10 -4 10 -11v-56c0 -7 -3 -11 -10 -11h-10c-7 0 -10 4 -10 11v56c0 7 3 11 10 11zM122 0h-24v480h24v-480z" />
    <glyph glyph-name="uni0458" unicode="&#x458;" horiz-adv-x="220" 
d="M105 679h10c8 0 12 -4 12 -12v-62c0 -8 -4 -12 -12 -12h-10c-8 0 -12 4 -12 12v62c0 8 4 12 12 12zM122 480v-526c0 -65 -26 -119 -66 -164l-13 10c34 45 55 89 55 154v526h24z" />
    <glyph glyph-name="uni045B" unicode="&#x45b;" horiz-adv-x="566" 
d="M140 511v-126c0 -35 -1 -66 -5 -93c83 62 159 100 234 100c85 0 129 -45 129 -131v-307c0 -65 -26 -119 -66 -164l-13 10c34 45 55 90 55 155v303c0 76 -36 111 -110 111c-72 0 -134 -33 -226 -98v-271h-24v511h-81v20h81v169h25v-169h219v-20h-218z" />
    <glyph glyph-name="uni04B1" unicode="&#x4b1;" horiz-adv-x="562" 
d="M297 53h159v-20h-162v-243h-25v243h-163v20h160l-233 427h28l180 -333c12 -22 25 -46 38 -68h5c12 22 26 46 37 67l180 334h28z" />
    <glyph glyph-name="uni04B7" unicode="&#x4b7;" horiz-adv-x="517" 
d="M464 21v-164h-17l-6 143h-54v236c-78 -39 -150 -54 -221 -54c-66 0 -101 34 -101 102v196h24v-192c0 -57 27 -82 83 -82c77 0 133 13 215 52v222h24v-459h53z" />
    <glyph glyph-name="Delta" unicode="&#x394;" horiz-adv-x="614" 
d="M577 22v-22h-540v22l256 668h28zM332 596l-25 67c-8 -23 -17 -45 -25 -68l-219 -573h488z" />
    <glyph glyph-name="Omega" unicode="&#x3a9;" horiz-adv-x="718" 
d="M190 22h62c-114 76 -162 173 -162 335c0 227 77 345 269 345c187 0 269 -118 269 -345c0 -166 -50 -259 -162 -335h62h135v-22h-228v22c124 81 167 177 167 333c0 220 -74 324 -243 324c-174 0 -243 -104 -243 -325c0 -172 52 -251 167 -332v-22h-228v22h135z" />
    <glyph glyph-name="mu" unicode="&#x3bc;" horiz-adv-x="576" 
d="M473 480v-480h-18l-3 88c-79 -66 -152 -100 -224 -100c-52 0 -89 17 -109 49c4 -30 4 -60 4 -90v-157h-24v690h24v-358c0 -76 36 -111 110 -111c69 0 128 33 216 98v371h24z" />
    <glyph glyph-name="pi" unicode="&#x3c0;" horiz-adv-x="640" 
d="M609 459h-111v-459h-24v459h-308v-459h-24v459h-111v21h578v-21z" />
    <glyph glyph-name="zero" unicode="0" horiz-adv-x="584" 
d="M292 702c161 0 215 -114 215 -357s-54 -357 -215 -357s-215 114 -215 357s54 357 215 357zM292 679c-142 0 -189 -106 -189 -334s47 -334 189 -334s189 106 189 334s-47 334 -189 334z" />
    <glyph glyph-name="one" unicode="1" horiz-adv-x="378" 
d="M251 0h-25v618c0 15 1 31 3 46l-187 -63l-5 16l189 73h25v-690z" />
    <glyph glyph-name="two" unicode="2" horiz-adv-x="557" 
d="M74 657l-6 18c95 23 140 27 196 27c128 0 201 -20 201 -138c0 -94 -46 -166 -139 -274l-232 -268h120h282v-22h-434v14c0 6 2 10 5 14l240 277c93 108 134 184 131 267c-4 97 -71 107 -169 107c-63 0 -110 -4 -195 -22z" />
    <glyph glyph-name="three" unicode="3" horiz-adv-x="552" 
d="M78 667l-7 18c63 11 116 17 176 17c153 0 206 -38 206 -159c0 -82 -26 -157 -109 -174v-4c96 -15 126 -85 128 -173c3 -136 -51 -204 -206 -204c-70 0 -140 8 -205 17l6 18c57 -6 127 -12 197 -12c129 0 183 50 183 181c0 83 -28 162 -171 164h-129v18l129 3
c139 3 153 99 153 165c-3 107 -47 137 -181 137c-63 0 -125 -6 -170 -12z" />
    <glyph glyph-name="four" unicode="4" horiz-adv-x="595" 
d="M540 200l-82 -3v-197h-25v196h-328c-41 0 -66 41 -46 78l223 416h26l-226 -423c-13 -24 2 -49 29 -49h322v225l7 117h18v-342h82v-18z" />
    <glyph glyph-name="five" unicode="5" horiz-adv-x="526" 
d="M435 668h-309l-12 -265h55c200 -3 289 -26 289 -200c0 -108 -21 -215 -211 -215c-48 0 -114 9 -182 28l6 18c61 -15 128 -24 174 -24c161 0 189 79 189 193c0 168 -89 178 -317 178h-14c-8 0 -14 6 -13 14l14 295h334z" />
    <glyph glyph-name="six" unicode="6" horiz-adv-x="564" 
d="M453 690l-8 -18c-38 7 -61 7 -111 7c-165 0 -222 -47 -227 -338c61 76 113 100 203 100c143 0 187 -59 187 -235c0 -136 -26 -218 -204 -218c-182 0 -212 85 -212 314c0 349 70 400 253 400c24 0 71 0 119 -12zM294 10c155 0 178 73 178 199c0 151 -33 210 -164 210
c-76 0 -130 -20 -201 -101v-19c0 -205 21 -289 187 -289z" />
    <glyph glyph-name="seven" unicode="7" horiz-adv-x="505" 
d="M48 690h377c33 0 40 -11 30 -41l-226 -649h-25l219 630c4 13 9 25 13 38h-386z" />
    <glyph glyph-name="eight" unicode="8" horiz-adv-x="611" 
d="M198 356v4c-70 8 -99 59 -99 158c0 124 43 180 207 180c165 1 206 -56 206 -180c0 -99 -29 -150 -99 -158v-4c84 -9 113 -67 113 -184c0 -131 -42 -178 -220 -180c-175 -1 -221 49 -221 180c0 117 29 175 113 184zM306 675c-147 0 -182 -41 -182 -157
c0 -129 36 -149 183 -149c151 0 180 22 180 149c0 116 -32 157 -181 157zM307 347c-160 -1 -197 -23 -197 -175c0 -113 39 -156 196 -156c159 0 195 43 195 156c0 154 -38 175 -194 175z" />
    <glyph glyph-name="nine" unicode="9" horiz-adv-x="565" 
d="M102 0l8 18c41 -5 59 -7 117 -7c163 0 227 43 227 338c-61 -76 -113 -100 -202 -100c-138 0 -185 79 -185 225c0 142 41 228 203 228c195 0 210 -85 210 -348c0 -317 -74 -366 -253 -366c-26 0 -73 0 -125 12zM254 271c75 0 129 20 200 101c0 230 -11 308 -184 308
c-145 0 -178 -79 -178 -208c0 -127 36 -201 162 -201z" />
    <glyph glyph-name="fraction" unicode="&#x2044;" horiz-adv-x="160" 
d="M-149 0h-24l480 690h24z" />
    <glyph glyph-name="onehalf" unicode="&#xbd;" horiz-adv-x="871" 
d="M201 276h-21v363c0 10 0 20 2 30l-124 -37l-4 14l126 44h21v-414zM150 0h-24l480 690h24zM527 389l-4 16c64 14 95 16 133 16c86 0 135 -12 135 -84c0 -55 -29 -97 -92 -162l-153 -156c27 0 53 1 80 0h186v-19h-293v12c0 5 2 8 4 11l158 161c61 64 89 108 87 156
c-2 56 -46 62 -110 62c-42 0 -74 -2 -131 -13z" />
    <glyph glyph-name="onequarter" unicode="&#xbc;" horiz-adv-x="840" 
d="M180 276v363c0 10 0 20 2 30l-124 -37l-4 14l126 44h21v-414h-21zM630 690l-480 -690h-24l480 690h24zM788 118l-45 -2v-116h-21v115h-228c-28 0 -45 25 -32 48l148 251h23l-149 -252c-8 -14 2 -29 20 -29h218v133l5 70h16v-203h45v-15z" />
    <glyph glyph-name="threequarters" unicode="&#xbe;" horiz-adv-x="930" 
d="M260 495v-2c64 -9 85 -50 86 -104c2 -82 -35 -122 -140 -122c-47 0 -94 5 -138 10l4 16c39 -4 85 -7 132 -7c84 0 120 28 120 104c0 49 -19 94 -112 95h-86v15l86 2c93 2 102 57 102 95c-1 62 -31 79 -120 79c-43 0 -84 -3 -115 -7l-4 16c42 7 79 10 119 10
c105 0 141 -23 141 -95c0 -50 -17 -95 -75 -105zM734 690l-480 -690h-24l480 690h24zM877 118l-55 -3v-115h-21v115h-218c-28 0 -45 25 -32 48l148 251h23l-149 -252c-8 -14 2 -29 20 -29h208v133l5 70h16v-203h55v-15z" />
    <glyph glyph-name="onesuperior" unicode="&#xb9;" horiz-adv-x="286" 
d="M195 360h-21v363c0 10 0 20 2 30l-124 -37l-4 14l126 44h21v-414z" />
    <glyph glyph-name="twosuperior" unicode="&#xb2;" horiz-adv-x="441" 
d="M81 749l-4 16c64 14 95 16 133 16c86 0 135 -12 135 -84c0 -55 -29 -97 -92 -162l-153 -156c27 0 53 1 80 0h186v-19h-293v12c0 5 2 8 4 11l158 161c61 64 89 108 87 156c-2 56 -46 62 -110 62c-42 0 -74 -2 -131 -13z" />
    <glyph glyph-name="threesuperior" unicode="&#xb3;" horiz-adv-x="424" 
d="M84 755l-4 16c42 7 79 10 119 10c105 0 141 -23 141 -95c0 -50 -17 -95 -75 -105v-2c64 -9 85 -50 86 -104c2 -82 -35 -122 -140 -122c-47 0 -94 5 -138 10l4 16c39 -4 85 -7 132 -7c84 0 120 28 120 104c0 49 -19 94 -112 95h-86v15l86 2c93 2 102 57 102 95
c-1 62 -31 79 -120 79c-43 0 -84 -3 -115 -7z" />
    <glyph glyph-name="asterisk" unicode="*" horiz-adv-x="453" 
d="M234 537l94 -129l-18 -13l-84 125l-83 -124l-19 13l94 128l-3 153h24zM202 548l-1 -9l-4 -8l-125 39l8 22zM382 568l-127 -37l-4 8v9l123 42z" />
    <glyph glyph-name="backslash" unicode="\" horiz-adv-x="494" 
d="M456 -59h-25l-393 749h25z" />
    <glyph glyph-name="bullet" unicode="&#x2022;" horiz-adv-x="351" 
d="M171 337h10c48 0 64 -16 64 -64v-10c0 -49 -16 -65 -64 -65h-10c-49 0 -65 16 -65 65v10c0 48 16 64 65 64z" />
    <glyph glyph-name="colon" unicode=":" horiz-adv-x="206" 
d="M98 430h10c8 0 12 -4 12 -12v-62c0 -8 -4 -12 -12 -12h-10c-8 0 -12 4 -12 12v62c0 8 4 12 12 12zM98 86h10c8 0 12 -4 12 -12v-62c0 -8 -4 -12 -12 -12h-10c-8 0 -12 4 -12 12v62c0 8 4 12 12 12z" />
    <glyph glyph-name="comma" unicode="," horiz-adv-x="208" 
d="M100 86h9c8 0 12 -4 12 -12v-64c-1 -36 -7 -88 -18 -127l-12 5c3 40 4 61 4 112c-4 0 -8 4 -6 10v64c-1 8 3 12 11 12z" />
    <glyph glyph-name="ellipsis" unicode="&#x2026;" horiz-adv-x="770" 
d="M98 86h10c8 0 12 -4 12 -12v-62c0 -8 -4 -12 -12 -12h-10c-8 0 -12 4 -12 12v62c0 8 4 12 12 12zM380 86h10c8 0 12 -4 12 -12v-62c0 -8 -4 -12 -12 -12h-10c-8 0 -12 4 -12 12v62c0 8 4 12 12 12zM662 86h10c8 0 12 -4 12 -12v-62c0 -8 -4 -12 -12 -12h-10
c-8 0 -12 4 -12 12v62c0 8 4 12 12 12z" />
    <glyph glyph-name="exclam" unicode="!" horiz-adv-x="253" 
d="M139 354l-2 -151h-21l-2 151v341h25v-341zM122 86h10c8 0 12 -4 12 -12v-62c0 -8 -4 -12 -12 -12h-10c-8 0 -12 4 -12 12v62c0 8 4 12 12 12z" />
    <glyph glyph-name="exclamdown" unicode="&#xa1;" horiz-adv-x="233" 
d="M112 480h10c8 0 12 -4 12 -12v-62c0 -8 -4 -12 -12 -12h-10c-8 0 -12 4 -12 12v62c0 8 4 12 12 12zM129 126v-331h-25v331l2 151h21z" />
    <glyph glyph-name="numbersign" unicode="#" horiz-adv-x="667" 
d="M494 470l-39 -220h110l-4 -22h-109l-40 -228h-25l40 228h-226l-40 -228h-25l40 228h-116l4 22h115l39 220h-116l4 22h116l34 198h25l-34 -198h226l34 198h25l-34 -198h109l-4 -22h-109zM469 470h-226l-39 -220h226z" />
    <glyph glyph-name="period" unicode="." horiz-adv-x="206" 
d="M98 86h10c8 0 12 -4 12 -12v-62c0 -8 -4 -12 -12 -12h-10c-8 0 -12 4 -12 12v62c0 8 4 12 12 12z" />
    <glyph glyph-name="periodcentered" unicode="&#xb7;" horiz-adv-x="206" 
d="M98 300h10c8 0 12 -4 12 -12v-62c0 -8 -4 -12 -12 -12h-10c-8 0 -12 4 -12 12v62c0 8 4 12 12 12z" />
    <glyph glyph-name="question" unicode="?" horiz-adv-x="507" 
d="M55 676l-5 18c64 10 93 18 203 18c128 0 196 -49 196 -155c0 -153 -190 -177 -190 -354h-24c0 194 189 212 189 354c0 91 -54 133 -171 133c-101 0 -131 -5 -198 -14zM241 86h10c8 0 12 -4 12 -12v-62c0 -8 -4 -12 -12 -12h-10c-8 0 -12 4 -12 12v62c0 8 4 12 12 12z" />
    <glyph glyph-name="questiondown" unicode="&#xbf;" horiz-adv-x="504" 
d="M254 490h10c8 0 12 -4 12 -12v-62c0 -8 -4 -12 -12 -12h-10c-8 0 -12 4 -12 12v62c0 8 4 12 12 12zM246 287h24c0 -194 -189 -212 -189 -354c0 -91 54 -133 171 -133c101 0 131 5 198 14l5 -18c-64 -10 -93 -18 -203 -18c-128 0 -196 49 -196 155c0 153 190 177 190 354z
" />
    <glyph glyph-name="quotedbl" unicode="&#x22;" horiz-adv-x="327" 
d="M112 482h-24v208h24v-208zM239 482h-24v208h24v-208z" />
    <glyph glyph-name="quotesingle" unicode="'" horiz-adv-x="200" 
d="M112 482h-24v208h24v-208z" />
    <glyph glyph-name="semicolon" unicode=";" horiz-adv-x="208" 
d="M98 430h10c8 0 12 -4 12 -12v-62c0 -8 -4 -12 -12 -12h-10c-8 0 -12 4 -12 12v62c0 8 4 12 12 12zM100 86h9c8 0 12 -4 12 -12v-64c-1 -36 -7 -88 -18 -127l-12 5c3 40 4 61 4 112c-4 0 -8 4 -6 10v64c-1 8 3 12 11 12z" />
    <glyph glyph-name="slash" unicode="/" horiz-adv-x="494" 
d="M63 -59h-25l393 749h25z" />
    <glyph glyph-name="underscore" unicode="_" horiz-adv-x="589" 
d="M510 -22h-431v22h431v-22z" />
    <glyph glyph-name="braceleft" unicode="{" horiz-adv-x="298" 
d="M248 768v-18c-80 0 -103 -37 -103 -108v-205c0 -81 -16 -95 -76 -109c63 -22 80 -35 80 -105v-262c0 -70 23 -108 103 -108v-18c-92 0 -127 37 -127 126v272c0 57 -20 62 -69 80v30c53 16 65 16 65 84v215c0 89 35 126 127 126z" />
    <glyph glyph-name="braceright" unicode="}" horiz-adv-x="298" 
d="M50 750v18c92 0 127 -37 127 -126v-215c0 -68 12 -68 65 -84v-30c-49 -18 -69 -23 -69 -80v-272c0 -89 -35 -126 -127 -126v18c80 0 103 38 103 108v262c0 70 17 83 80 105c-60 14 -76 28 -76 109v205c0 71 -23 108 -103 108z" />
    <glyph glyph-name="bracketleft" unicode="[" horiz-adv-x="312" 
d="M262 746h-120c-7 0 -12 -5 -12 -12v-865c0 -7 5 -12 12 -12h120v-22h-125c-18 0 -31 13 -31 31v871c0 18 13 31 31 31h125v-22z" />
    <glyph glyph-name="bracketright" unicode="]" horiz-adv-x="312" 
d="M50 768h125c18 0 31 -13 31 -31v-871c0 -18 -13 -31 -31 -31h-125v22h120c7 0 12 5 12 12v865c0 7 -5 12 -12 12h-120v22z" />
    <glyph glyph-name="parenleft" unicode="(" horiz-adv-x="355" 
d="M306 790l4 -18c-147 -76 -215 -220 -215 -459c0 -235 68 -380 215 -460l-4 -18c-163 77 -237 227 -237 477c0 252 74 402 237 478z" />
    <glyph glyph-name="parenright" unicode=")" horiz-adv-x="355" 
d="M45 772l4 18c163 -76 237 -226 237 -478c0 -250 -74 -400 -237 -477l-4 18c147 80 215 225 215 460c0 239 -68 383 -215 459z" />
    <glyph glyph-name="emdash" unicode="&#x2014;" horiz-adv-x="933" 
d="M847 240h-761v22h761v-22z" />
    <glyph glyph-name="endash" unicode="&#x2013;" horiz-adv-x="623" 
d="M537 240h-451v22h451v-22z" />
    <glyph glyph-name="hyphen" unicode="-" horiz-adv-x="483" 
d="M397 240h-311v22h311v-22z" />
    <glyph glyph-name="softhyphen" unicode="&#xad;" horiz-adv-x="483" 
d="M397 240h-311v22h311v-22z" />
    <glyph glyph-name="guillemotleft" unicode="&#xab;" horiz-adv-x="452" 
d="M226 444l-148 -193l149 -195l-12 -10l-164 201v8l163 199zM384 444l-148 -193l149 -195l-12 -10l-164 201v8l163 199z" />
    <glyph glyph-name="guillemotright" unicode="&#xbb;" horiz-adv-x="452" 
d="M243 255v-8l-164 -201l-12 10l149 195l-148 193l12 10zM401 255v-8l-164 -201l-12 10l149 195l-148 193l12 10z" />
    <glyph glyph-name="guilsinglleft" unicode="&#x2039;" horiz-adv-x="225" 
d="M196 444l-148 -193l149 -195l-12 -10l-164 201v8l163 199z" />
    <glyph glyph-name="guilsinglright" unicode="&#x203a;" horiz-adv-x="226" 
d="M205 255v-8l-165 -201l-12 10l149 195l-148 193l12 10z" />
    <glyph glyph-name="quotedblbase" unicode="&#x201e;" horiz-adv-x="321" 
d="M99 86h9c7 0 11 -4 11 -12v-64c-1 -36 -6 -88 -17 -127l-11 5c3 40 3 61 3 112c-3 0 -7 4 -5 10v64c-1 8 3 12 10 12zM213 86h9c7 0 11 -4 11 -12v-64c-1 -36 -6 -88 -17 -127l-11 5c3 40 3 61 3 112c-3 0 -7 4 -5 10v64c-1 8 3 12 10 12z" />
    <glyph glyph-name="quotedblleft" unicode="&#x201c;" horiz-adv-x="311" 
d="M103 528h-9c-7 0 -11 4 -11 12v64c1 36 6 88 17 127l11 -5c-3 -40 -3 -61 -3 -112c3 0 7 -4 5 -10v-64c1 -8 -3 -12 -10 -12zM217 528h-9c-7 0 -11 4 -11 12v64c1 36 6 88 17 127l11 -5c-3 -40 -3 -61 -3 -112c3 0 7 -4 5 -10v-64c1 -8 -3 -12 -10 -12z" />
    <glyph glyph-name="quotedblright" unicode="&#x201d;" horiz-adv-x="309" 
d="M94 721h9c7 0 11 -4 11 -12v-64c-1 -36 -6 -88 -17 -127l-11 5c3 40 3 61 3 112c-3 0 -7 4 -5 10v64c-1 8 3 12 10 12zM208 721h9c7 0 11 -4 11 -12v-64c-1 -36 -6 -88 -17 -127l-11 5c3 40 3 61 3 112c-3 0 -7 4 -5 10v64c-1 8 3 12 10 12z" />
    <glyph glyph-name="quoteleft" unicode="&#x2018;" horiz-adv-x="197" 
d="M103 528h-9c-7 0 -11 4 -11 12v64c1 36 6 88 17 127l11 -5c-3 -40 -3 -61 -3 -112c3 0 7 -4 5 -10v-64c1 -8 -3 -12 -10 -12z" />
    <glyph glyph-name="quoteright" unicode="&#x2019;" horiz-adv-x="195" 
d="M94 721h9c7 0 11 -4 11 -12v-64c-1 -36 -6 -88 -17 -127l-11 5c3 40 3 61 3 112c-3 0 -7 4 -5 10v64c-1 8 3 12 10 12z" />
    <glyph glyph-name="quotesinglbase" unicode="&#x201a;" horiz-adv-x="208" 
d="M100 86h9c8 0 12 -4 12 -12v-64c-1 -36 -7 -88 -18 -127l-12 5c3 40 4 61 4 112c-4 0 -8 4 -6 10v64c-1 8 3 12 11 12z" />
    <glyph glyph-name="space" unicode=" " horiz-adv-x="230" 
 />
    <glyph glyph-name="florin" unicode="&#x192;" horiz-adv-x="404" 
d="M385 677h-70c-80 0 -111 -29 -119 -111l-17 -181h167l-3 -23h-167l-34 -359c-8 -88 -42 -133 -127 -133c-20 0 -56 1 -77 4l1 18h70c73 0 101 29 109 111l34 359h-95l2 18l96 5l17 181c8 88 45 133 137 133c20 0 56 -1 77 -4z" />
    <glyph glyph-name="cent" unicode="&#xa2;" horiz-adv-x="504" 
d="M430 133l4 -18c-44 -10 -97 -17 -145 -17h-19l-7 -98h-21l7 100c-130 11 -180 81 -180 250c0 183 59 251 215 252l6 88h21l-6 -88c35 -1 82 -6 118 -17l-6 -18c-31 8 -81 11 -114 12l-31 -458h20c28 0 94 3 138 12zM251 123l31 456c-137 -2 -188 -56 -188 -229
c0 -159 43 -217 157 -227z" />
    <glyph glyph-name="currency" unicode="&#xa4;" horiz-adv-x="602" 
d="M503 135l-76 76c-33 -31 -78 -49 -127 -49s-94 18 -128 48l-74 -75l-15 14l75 75c-30 34 -49 79 -49 128s18 94 49 128l-74 74l14 15l74 -74c34 30 79 48 128 48c50 0 94 -19 128 -49l75 75l14 -15l-75 -74c30 -34 48 -79 48 -128s-18 -93 -49 -127l77 -76zM300 182
c93 -1 169 76 169 170s-76 171 -169 171c-94 0 -170 -77 -170 -171s76 -171 170 -170z" />
    <glyph glyph-name="dollar" unicode="$" horiz-adv-x="559" 
d="M295 358l61 -8c101 -12 139 -60 139 -181c0 -164 -75 -180 -210 -180h-10l-7 -124h-21l7 124c-48 1 -104 3 -173 11l3 19c64 -5 111 -7 171 -7l17 325l-69 10c-97 11 -134 65 -134 177c0 166 68 179 208 177h15l5 103h21l-5 -104c51 -2 102 -5 151 -11l-3 -19
c-49 3 -99 7 -150 8zM290 678h-13c-128 0 -183 -3 -183 -154c0 -101 30 -142 109 -153l71 -10zM276 12h10c133 2 184 20 184 157c0 109 -31 146 -114 157l-63 9z" />
    <glyph glyph-name="Euro" unicode="&#x20ac;" horiz-adv-x="648" 
d="M580 24l6 -18c-47 -12 -92 -18 -168 -18c-169 0 -240 100 -253 288h-97v21h96c-1 15 -1 31 -1 48c0 25 1 48 2 70h-97v21h99c17 174 88 266 251 266c74 0 111 -5 160 -17l-6 -18c-53 9 -83 12 -154 12c-145 0 -209 -84 -225 -243h289l-8 -21h-283c-1 -22 -2 -45 -2 -70
c0 -17 0 -33 1 -48h239l-8 -21h-230c13 -173 76 -265 227 -265c72 0 116 4 162 13z" />
    <glyph glyph-name="sterling" unicode="&#xa3;" 
d="M501 22v-22h-429v22c71 45 86 120 81 221l-5 110h-83v20h82l-7 154c-7 158 72 174 180 174c39 0 94 -3 156 -10l-3 -18c-62 5 -106 6 -176 6c-104 0 -137 -45 -133 -149l7 -157h251l-2 -20h-248l5 -110c4 -95 -4 -176 -73 -221h60h337z" />
    <glyph glyph-name="yen" unicode="&#xa5;" horiz-adv-x="602" 
d="M324 306h187v-20h-198v-90h198v-20h-198v-176h-25v176h-193v20h193v90h-193v20h182l-225 384h28l177 -303l41 -69h5c13 22 28 47 40 68l177 304h28z" />
    <glyph glyph-name="approxequal" unicode="&#x2248;" horiz-adv-x="593" 
d="M107 344h-20c-1 70 31 89 77 89c87 0 175 -66 268 -67c33 0 55 8 55 62h20c0 -59 -21 -85 -80 -85c-94 0 -182 66 -265 67c-33 0 -55 -10 -55 -66zM107 154h-20c-1 70 31 89 77 89c87 0 175 -66 268 -67c33 0 55 8 55 62h20c0 -59 -21 -85 -80 -85c-94 0 -182 66 -265 67
c-33 0 -55 -10 -55 -66z" />
    <glyph glyph-name="asciitilde" unicode="~" horiz-adv-x="533" 
d="M104 241h-17c-2 61 28 93 75 89c87 -5 123 -63 210 -68c41 -3 58 16 58 63h17c2 -58 -28 -89 -75 -85c-102 5 -132 63 -210 68c-41 4 -58 -18 -58 -67z" />
    <glyph glyph-name="divide" unicode="&#xf7;" horiz-adv-x="589" 
d="M288 502h10c8 0 12 -4 12 -12v-62c0 -8 -4 -12 -12 -12h-10c-8 0 -12 4 -12 12v62c0 8 4 12 12 12zM503 285h-417v22h417v-22zM288 176h10c8 0 12 -4 12 -12v-62c0 -8 -4 -12 -12 -12h-10c-8 0 -12 4 -12 12v62c0 8 4 12 12 12z" />
    <glyph glyph-name="emptyset" unicode="&#x2205;" horiz-adv-x="685" 
d="M343 633c161 0 292 -131 292 -292c0 -162 -131 -293 -292 -293c-162 0 -293 131 -293 293c0 161 131 292 293 292zM312 241h54c0 105 94 120 94 211c0 63 -41 93 -117 93c-66 0 -83 -5 -122 -11l3 -45c40 6 58 9 119 9c42 0 66 -17 66 -46c0 -65 -97 -96 -97 -211z
M359 171h-39c-4 0 -7 -3 -7 -8v-37c0 -4 3 -7 7 -7h39c5 0 8 3 8 7v37c0 5 -3 8 -8 8z" />
    <glyph glyph-name="equal" unicode="=" horiz-adv-x="589" 
d="M503 385h-417v22h417v-22zM503 173h-417v22h417v-22z" />
    <glyph glyph-name="greater" unicode="&#x3e;" horiz-adv-x="541" 
d="M476 306v-22l-393 -177v22l369 166l-369 172v22z" />
    <glyph glyph-name="greaterequal" unicode="&#x2265;" horiz-adv-x="589" 
d="M492 356v-22l-393 -137v22l368 126l-368 142v22zM502 105h-417v21h417v-21z" />
    <glyph glyph-name="infinity" unicode="&#x221e;" horiz-adv-x="792" 
d="M590 438c70 0 126 -39 126 -125c0 -88 -60 -134 -137 -134c-92 0 -144 65 -181 112c-48 -58 -103 -112 -186 -112c-76 0 -136 46 -136 134c0 86 57 125 131 125c88 0 145 -55 191 -115c37 46 98 115 192 115zM216 200c77 0 122 46 169 107c-46 59 -96 110 -178 110
c-65 0 -108 -31 -108 -104c0 -75 46 -113 117 -113zM577 200c69 0 116 38 116 114c0 72 -43 103 -103 103c-83 0 -140 -63 -180 -111c30 -42 79 -106 167 -106z" />
    <glyph glyph-name="integral" unicode="&#x222b;" horiz-adv-x="388" 
d="M202 -89l-40 670c-5 88 27 133 105 133c20 0 56 -1 78 -4l-3 -18h-67c-66 0 -94 -29 -89 -111l40 -670c5 -88 -27 -133 -105 -133c-20 0 -56 1 -78 4l3 18h67c66 0 94 29 89 111z" />
    <glyph glyph-name="less" unicode="&#x3c;" horiz-adv-x="541" 
d="M458 467l-369 -172l369 -166v-22l-393 177v22l393 183v-22z" />
    <glyph glyph-name="lessequal" unicode="&#x2264;" horiz-adv-x="589" 
d="M490 486l-368 -141l368 -125v-23l-393 137v22l393 153v-23zM504 105h-417v21h417v-21z" />
    <glyph glyph-name="logicalnot" unicode="&#xac;" horiz-adv-x="593" 
d="M503 307v-178h-23v156h-394v22h417z" />
    <glyph glyph-name="minus" unicode="&#x2212;" horiz-adv-x="589" 
d="M503 285h-417v22h417v-22z" />
    <glyph glyph-name="multiply" unicode="&#xd7;" horiz-adv-x="488" 
d="M65 139l14 -17l350 315l-14 16z" />
    <glyph glyph-name="notequal" unicode="&#x2260;" horiz-adv-x="615" 
d="M383 385l-115 -190h269v-22h-283l-75 -124l-19 9l70 115h-110v22h123l116 190h-239v22h252l65 107l19 -9l-60 -98h141v-22h-154z" />
    <glyph glyph-name="partialdiff" unicode="&#x2202;" horiz-adv-x="567" 
d="M148 682v20c239 0 364 -48 340 -366c-14 -183 -42 -348 -219 -348c-151 0 -205 106 -200 228c6 145 83 225 204 225c63 0 139 -22 189 -111l1 9c19 285 -76 344 -315 343zM269 10c145 0 179 140 192 295c-58 94 -137 114 -190 114c-106 0 -173 -79 -178 -201
c-4 -109 43 -208 176 -208z" />
    <glyph glyph-name="percent" unicode="%" horiz-adv-x="883" 
d="M211 702c112 0 150 -64 150 -204s-38 -204 -150 -204s-150 64 -150 204s38 204 150 204zM212 0h-24l480 690h24zM211 683c-96 0 -127 -57 -127 -185s31 -185 127 -185s127 57 127 185s-31 185 -127 185zM672 401c112 0 150 -64 150 -204s-38 -204 -150 -204
s-150 64 -150 204s38 204 150 204zM672 382c-96 0 -127 -57 -127 -185s31 -185 127 -185s127 57 127 185s-31 185 -127 185z" />
    <glyph glyph-name="perthousand" unicode="&#x2030;" horiz-adv-x="1242" 
d="M211 702c112 0 150 -64 150 -204s-38 -204 -150 -204s-150 64 -150 204s38 204 150 204zM212 0h-24l480 690h24zM211 683c-96 0 -127 -57 -127 -185s31 -185 127 -185s127 57 127 185s-31 185 -127 185zM672 401c112 0 150 -64 150 -204s-38 -204 -150 -204
s-150 64 -150 204s38 204 150 204zM1029 401c112 0 150 -64 150 -204s-38 -204 -150 -204s-150 64 -150 204s38 204 150 204zM672 382c-96 0 -127 -57 -127 -185s31 -185 127 -185s127 57 127 185s-31 185 -127 185zM1029 382c-96 0 -127 -57 -127 -185s31 -185 127 -185
s127 57 127 185s-31 185 -127 185z" />
    <glyph glyph-name="plus" unicode="+" horiz-adv-x="553" 
d="M485 286h-198v-187h-21v187h-198v22h197v187h23v-187h197v-22z" />
    <glyph glyph-name="plusminus" unicode="&#xb1;" horiz-adv-x="599" 
d="M508 358v-22h-198v-147h-21v147h-198v22h197v147h23v-147h197zM91 116h417v-22h-417v22z" />
    <glyph glyph-name="product" unicode="&#x220f;" horiz-adv-x="730" 
d="M684 669h-121v-779h-24v779h-348v-779h-24v779h-121v21h638v-21z" />
    <glyph glyph-name="radical" unicode="&#x221a;" horiz-adv-x="551" 
d="M515 876l-288 -868c-2 -5 -7 -8 -13 -8h-27c-6 0 -12 3 -13 8l-127 472h26l121 -458h13l282 854h26z" />
    <glyph glyph-name="summation" unicode="&#x2211;" horiz-adv-x="580" 
d="M510 668h-413l189 -307l-203 -422h437v-22h-464v22l202 422l-190 307v22h442v-22z" />
    <glyph glyph-name="lozenge" unicode="&#x25ca;" horiz-adv-x="593" 
d="M304 693l239 -340c3 -5 3 -9 0 -14l-239 -342c-4 -5 -10 -5 -14 0l-240 342c-3 5 -3 9 0 14l240 340c4 5 10 5 14 0zM75 346l222 -322l221 322l-221 320z" />
    <glyph glyph-name="ampersand" unicode="&#x26;" horiz-adv-x="783" 
d="M723 16l3 -16c-27 -4 -68 -6 -85 -6c-74 0 -110 36 -110 101v1c-66 -78 -141 -104 -252 -104c-143 0 -199 43 -199 182c0 106 33 173 137 182v4c-87 7 -117 63 -117 161c0 160 80 177 257 177c43 0 97 -1 159 -8l-4 -18c-19 2 -117 3 -156 3c-172 0 -230 -19 -230 -155
c0 -122 46 -152 176 -152h229l6 156h18v-156h141l-3 -21h-138v-251c0 -53 29 -80 80 -80h88zM531 347h-229c-142 0 -196 -38 -196 -173c0 -121 44 -159 171 -159c123 0 193 36 254 115v217z" />
    <glyph glyph-name="asciicircum" unicode="^" horiz-adv-x="392" 
d="M362 378l-12 -12l-150 182h-8l-149 -182l-13 12l157 197h18z" />
    <glyph glyph-name="at" unicode="@" horiz-adv-x="693" 
d="M337 567h140c81 0 131 -33 131 -117v-321h-17l-5 81c-41 -36 -140 -86 -231 -86c-78 0 -124 38 -124 105v54c0 63 42 98 114 98h241v69c0 53 -24 96 -110 95h-138c-194 0 -220 -16 -220 -280c0 -273 25 -290 244 -290h241v-19c-80 -2 -160 -3 -240 -3
c-242 -4 -269 31 -269 311c0 269 24 301 243 303zM586 364l-241 -4c-58 -2 -90 -28 -90 -77v-53c0 -54 34 -83 99 -84c76 -1 175 39 232 85v133z" />
    <glyph glyph-name="bar" unicode="|" horiz-adv-x="234" 
d="M128 -169h-22v950h22v-950z" />
    <glyph glyph-name="brokenbar" unicode="&#xa6;" horiz-adv-x="236" 
d="M129 381h-22v400h22v-400zM129 -169h-22v400h22v-400z" />
    <glyph glyph-name="copyright" unicode="&#xa9;" horiz-adv-x="858" 
d="M429 702c198 0 357 -150 357 -357s-159 -357 -357 -357c-197 0 -357 150 -357 357s160 357 357 357zM429 681c-184 0 -336 -142 -336 -336s152 -336 336 -336c185 0 336 142 336 336s-151 336 -336 336zM574 144l4 -16c-40 -8 -79 -12 -144 -12c-144 0 -195 62 -195 232
s51 232 195 232c61 0 94 -3 133 -12l-5 -15c-43 5 -71 6 -128 6c-128 0 -173 -54 -173 -211s45 -212 173 -212c62 0 100 2 140 8z" />
    <glyph glyph-name="dagger" unicode="&#x2020;" horiz-adv-x="432" 
d="M228 -110h-24v574l-1 11v216h25v-801zM55 454v26h134v-21zM377 480v-26l-134 5v21h134z" />
    <glyph glyph-name="daggerdbl" unicode="&#x2021;" horiz-adv-x="468" 
d="M246 -110h-25v801h25v-801zM73 454v26h134v-21zM395 480v-26l-134 5v21h134zM207 101h-134v26l134 -5v-21zM261 122l134 5v-26h-134v21z" />
    <glyph glyph-name="degree" unicode="&#xb0;" horiz-adv-x="383" 
d="M192 702c67 0 123 -56 123 -123c0 -68 -56 -124 -123 -124c-68 0 -124 56 -124 124c0 67 56 123 124 123zM192 682c-58 0 -104 -46 -104 -103c0 -55 46 -104 104 -104c57 0 103 49 103 104c0 57 -46 103 -103 103z" />
    <glyph glyph-name="paragraph" unicode="&#xb6;" horiz-adv-x="597" 
d="M286 -210v411c-166 15 -232 86 -232 249c0 185 84 252 299 252c36 0 93 -4 135 -17v-685h-25v670c-47 6 -112 9 -152 9v-889h-25z" />
    <glyph glyph-name="registered" unicode="&#xae;" horiz-adv-x="581" 
d="M291 701c123 0 222 -99 222 -222c0 -124 -99 -223 -222 -223c-124 0 -223 99 -223 223c0 123 99 222 223 222zM291 272c112 0 204 92 204 207c0 114 -92 206 -204 206c-113 0 -205 -92 -205 -206c0 -115 92 -207 205 -207zM340 467v-2c17 -3 31 -18 39 -39l37 -90h-20
l-36 88c-11 27 -29 37 -54 37c-45 0 -79 1 -98 1v-126h-18v283c36 3 60 3 112 3c74 0 102 -18 102 -80c0 -49 -19 -69 -64 -75zM208 475h94c61 1 84 15 84 66c0 53 -23 65 -84 65c-41 0 -75 0 -94 -1v-130z" />
    <glyph glyph-name="section" unicode="&#xa7;" horiz-adv-x="543" 
d="M370 335l-192 110c-79 45 -104 85 -104 148c0 96 68 110 177 109c75 -1 153 -5 216 -12l-3 -18c-66 4 -106 7 -213 8c-88 1 -152 -2 -152 -87c0 -60 32 -94 79 -121l192 -109c86 -49 98 -116 87 -221h-22c11 93 -5 159 -65 193zM86 416h22c-11 -93 2 -154 65 -190
l193 -109c76 -43 103 -85 103 -149c0 -110 -79 -113 -177 -112c-71 1 -138 5 -216 12l3 18c78 -4 144 -7 213 -8c86 -1 152 -1 152 90c0 61 -34 97 -79 122l-191 108c-85 48 -99 113 -88 218z" />
    <glyph glyph-name="trademark" unicode="&#x2122;" horiz-adv-x="947" 
d="M387 696v-19h-144v-361h-22v361h-143v19h309zM860 316h-22l-17 361h-14l-129 -318c-1 -5 -5 -8 -11 -8h-27c-6 0 -10 3 -11 8l-129 318h-14l-17 -361h-22l17 368c1 7 5 12 12 12h31c5 0 9 -3 10 -8l109 -267c7 -17 13 -35 20 -52h15l21 53l107 266c2 5 6 8 11 8h31
c7 0 12 -5 12 -12z" />
    <glyph glyph-name="acute" unicode="&#xb4;" horiz-adv-x="277" 
d="M227 691l-153 -141l-14 13l149 145z" />
    <glyph glyph-name="breve" unicode="&#x2d8;" horiz-adv-x="357" 
d="M297 687l18 -4c0 -71 -52 -114 -135 -114c-84 0 -137 43 -137 114l18 4c0 -60 46 -94 119 -94c71 0 117 34 117 94z" />
    <glyph glyph-name="brevecy" horiz-adv-x="357" 
d="M291 691h24c0 -71 -52 -122 -135 -122c-84 0 -137 51 -137 122h24c0 -66 46 -104 113 -104c65 0 111 38 111 104z" />
    <glyph glyph-name="caron" unicode="&#x2c7;" horiz-adv-x="392" 
d="M342 692l-137 -117h-18l-137 117l13 12l129 -102h8l130 102z" />
    <glyph glyph-name="cedilla" unicode="&#xb8;" horiz-adv-x="219" 
d="M100 -63l3 14c51 3 79 -17 78 -65c-1 -67 -54 -116 -139 -105l4 15c71 -3 113 40 113 90c0 37 -15 50 -59 51z" />
    <glyph glyph-name="circumflex" unicode="&#x2c6;" horiz-adv-x="392" 
d="M341 587l-11 -12l-130 102h-8l-129 -102l-12 12l136 117h18z" />
    <glyph glyph-name="dieresis" unicode="&#xa8;" horiz-adv-x="399" 
d="M106 673h10c7 0 10 -4 10 -11v-56c0 -7 -3 -11 -10 -11h-10c-7 0 -10 4 -10 11v56c0 7 3 11 10 11zM283 673h10c7 0 10 -4 10 -11v-56c0 -7 -3 -11 -10 -11h-10c-7 0 -10 4 -10 11v56c0 7 3 11 10 11z" />
    <glyph glyph-name="dotaccent" unicode="&#x2d9;" horiz-adv-x="206" 
d="M98 676h10c8 0 12 -4 12 -12v-62c0 -8 -4 -12 -12 -12h-10c-8 0 -12 4 -12 12v62c0 8 4 12 12 12z" />
    <glyph glyph-name="grave" unicode="`" horiz-adv-x="277" 
d="M217 563l-14 -13l-153 141l18 17z" />
    <glyph glyph-name="hungarumlaut" unicode="&#x2dd;" horiz-adv-x="410" 
d="M197 700l-117 -152l-16 10l111 157zM337 700l-117 -152l-16 10l111 157z" />
    <glyph glyph-name="macron" unicode="&#xaf;" horiz-adv-x="400" 
d="M330 625h-260v23h260v-23z" />
    <glyph glyph-name="ogonek" unicode="&#x2db;" horiz-adv-x="253" 
d="M146 2l18 -2c-36 -36 -69 -76 -87 -126c-22 -62 17 -83 93 -56l3 -12c-103 -48 -142 3 -118 70c12 35 37 77 91 126z" />
    <glyph glyph-name="ring" unicode="&#x2da;" horiz-adv-x="292" 
d="M146 733c53 0 96 -43 96 -95c0 -53 -43 -95 -96 -95s-96 42 -96 95c0 52 43 95 96 95zM146 714c-43 0 -75 -33 -75 -76c0 -44 32 -76 75 -76c42 0 75 32 75 76c0 43 -33 76 -75 76z" />
    <glyph glyph-name="tilde" unicode="&#x2dc;" horiz-adv-x="400" 
d="M72 598h-17c-2 61 28 93 75 89c59 -5 81 -63 140 -68c41 -3 58 16 58 63h17c2 -58 -28 -89 -75 -85c-67 5 -90 63 -140 68c-41 4 -58 -18 -58 -67z" />
    </font>
</defs>
</svg>
